<svg width="151" height="144" viewBox="0 0 151 144" fill="none" xmlns="http://www.w3.org/2000/svg">
<g clip-path="url(#clip0_16_1654)">
<rect width="250" height="362" fill="white"/>
<rect y="-27.3333" width="41.6667" height="41.6667" rx="4.5977" stroke="black" stroke-opacity="0.12" stroke-width="0.431035"/>
<rect x="41.6667" y="-27.3333" width="41.6667" height="41.6667" rx="4.5977" stroke="black" stroke-opacity="0.12" stroke-width="0.431035"/>
<rect x="83.3333" y="-27.3333" width="41.6667" height="41.6667" rx="4.5977" stroke="black" stroke-opacity="0.12" stroke-width="0.431035"/>
<rect x="125" y="-27.3333" width="41.6667" height="41.6667" rx="4.5977" stroke="black" stroke-opacity="0.12" stroke-width="0.431035"/>
<rect y="14.3333" width="41.6667" height="41.6667" rx="4.5977" stroke="black" stroke-opacity="0.12" stroke-width="0.431035"/>
<rect x="41.6667" y="14.3333" width="41.6667" height="41.6667" rx="4.5977" stroke="black" stroke-opacity="0.12" stroke-width="0.431035"/>
<rect x="83.3333" y="14.3333" width="41.6667" height="41.6667" rx="4.5977" stroke="black" stroke-opacity="0.12" stroke-width="0.431035"/>
<rect x="125" y="14.3333" width="41.6667" height="41.6667" rx="4.5977" stroke="black" stroke-opacity="0.12" stroke-width="0.431035"/>
<rect y="56" width="41.6667" height="41.6667" rx="4.5977" stroke="black" stroke-opacity="0.12" stroke-width="0.431035"/>
<rect x="41.6667" y="55.9999" width="41.6667" height="41.6667" rx="4.5977" stroke="black" stroke-opacity="0.12" stroke-width="0.431035"/>
<rect x="83.3333" y="55.9999" width="41.6667" height="41.6667" rx="4.5977" stroke="black" stroke-opacity="0.12" stroke-width="0.431035"/>
<rect x="125" y="55.9999" width="41.6667" height="41.6667" rx="4.5977" stroke="black" stroke-opacity="0.12" stroke-width="0.431035"/>
<rect y="97.6667" width="41.6667" height="41.6667" rx="4.5977" stroke="black" stroke-opacity="0.12" stroke-width="0.431035"/>
<rect x="41.6667" y="97.6668" width="41.6667" height="41.6667" rx="4.5977" stroke="black" stroke-opacity="0.12" stroke-width="0.431035"/>
<rect x="83.3333" y="97.6668" width="41.6667" height="41.6667" rx="4.5977" stroke="black" stroke-opacity="0.12" stroke-width="0.431035"/>
<rect x="125" y="97.6668" width="41.6667" height="41.6667" rx="4.5977" stroke="black" stroke-opacity="0.12" stroke-width="0.431035"/>
<rect y="139.333" width="41.6667" height="41.6667" rx="4.5977" stroke="black" stroke-opacity="0.12" stroke-width="0.431035"/>
<rect x="41.6667" y="139.333" width="41.6667" height="41.6667" rx="4.5977" stroke="black" stroke-opacity="0.12" stroke-width="0.431035"/>
<rect x="83.3333" y="139.333" width="41.6667" height="41.6667" rx="4.5977" stroke="black" stroke-opacity="0.12" stroke-width="0.431035"/>
<rect x="125" y="139.333" width="41.6667" height="41.6667" rx="4.5977" stroke="black" stroke-opacity="0.12" stroke-width="0.431035"/>
<path d="M83.6667 -23.8848V9.73592C83.6667 12.2752 85.7251 14.3336 88.2644 14.3336H120.736C123.275 14.3336 125.333 16.3921 125.333 18.9313V51.4026C125.333 53.9418 127.392 56.0003 129.931 56.0003H162.402C164.942 56.0003 167 58.0588 167 60.598V93.0693C167 95.6085 169.058 97.667 171.598 97.667H204.069C206.608 97.667 208.667 99.7254 208.667 102.265V134.736C208.667 137.275 210.725 139.334 213.264 139.334H246.885M42 -23.8848V9.73592C42 12.2752 44.0585 14.3336 46.5977 14.3336H79.069C81.6082 14.3336 83.6667 16.3921 83.6667 18.9313V51.4026C83.6667 53.9418 85.7251 56.0003 88.2644 56.0003H120.736C123.275 56.0003 125.333 58.0588 125.333 60.598V93.0693C125.333 95.6085 123.275 97.667 120.736 97.667H88.2644C85.7251 97.667 83.6667 95.6085 83.6667 93.0693V60.0233L83.6264 59.7517C83.3179 57.6693 81.5503 56.1143 79.4455 56.0738L75.6207 56.0003H46.5977C44.0585 56.0003 42 58.0588 42 60.598V93.0693C42 95.6085 44.0585 97.667 46.5977 97.667H79.3563L80.4478 97.7397C82.2591 97.8605 83.6667 99.365 83.6667 101.18V104.707M83.6667 101.115V134.736C83.6667 137.275 85.7251 139.334 88.2644 139.334H120.736C123.275 139.334 125.333 141.392 125.333 143.931V176.403C125.333 178.942 127.392 181 129.931 181H162.402C164.942 181 167 183.059 167 185.598V218.069C167 220.608 169.058 222.667 171.598 222.667H204.069C206.608 222.667 208.667 224.725 208.667 227.265V259.736C208.667 262.275 210.725 264.334 213.264 264.334H246.885" stroke="url(#paint0_linear_16_1654)" stroke-opacity="0.8" stroke-width="0.4"/>
<path d="M0 233.621L0 -1.52588e-05H125L125 233.621H0Z" fill="url(#paint1_linear_16_1654)"/>
<rect x="233.621" y="264.368" width="233.621" height="125" transform="rotate(-180 233.621 264.368)" fill="url(#paint2_linear_16_1654)"/>
<ellipse cx="203.219" cy="101.839" rx="155.46" ry="132.471" fill="url(#paint3_radial_16_1654)"/>
</g>
<defs>
<linearGradient id="paint0_linear_16_1654" x1="42" y1="-23.8848" x2="242.287" y2="223.96" gradientUnits="userSpaceOnUse">
<stop offset="0.0819437" stop-color="#F7F7F7"/>
<stop offset="0.208333" stop-color="#00FFC4"/>
<stop offset="0.526042" stop-color="#00FFC4"/>
<stop offset="0.9375" stop-color="#00FFC4"/>
</linearGradient>
<linearGradient id="paint1_linear_16_1654" x1="0" y1="116.81" x2="125" y2="116.81" gradientUnits="userSpaceOnUse">
<stop stop-color="white"/>
<stop offset="1" stop-color="white" stop-opacity="0"/>
</linearGradient>
<linearGradient id="paint2_linear_16_1654" x1="350.431" y1="264.368" x2="350.431" y2="389.368" gradientUnits="userSpaceOnUse">
<stop stop-color="white"/>
<stop offset="0.713542" stop-color="white" stop-opacity="0.7"/>
<stop offset="1" stop-color="white" stop-opacity="0"/>
</linearGradient>
<radialGradient id="paint3_radial_16_1654" cx="0" cy="0" r="1" gradientUnits="userSpaceOnUse" gradientTransform="translate(203.219 101.839) rotate(90) scale(132.471 155.46)">
<stop stop-color="white"/>
<stop offset="1" stop-color="white" stop-opacity="0"/>
</radialGradient>
<clipPath id="clip0_16_1654">
<rect width="250" height="362" fill="white"/>
</clipPath>
</defs>
</svg>
