<svg width="395" height="209" viewBox="0 0 395 209" fill="none" xmlns="http://www.w3.org/2000/svg">
<path d="M1.23553 -21.8822L0.117764 -23L-1 -21.8822L0.117764 -20.7645L1.23553 -21.8822Z" fill="black" fill-opacity="0.05"/>
<path d="M15.2868 -21.8822L14.169 -23L13.0512 -21.8822L14.169 -20.7645L15.2868 -21.8822Z" fill="black" fill-opacity="0.05"/>
<path d="M29.3378 -21.8822L28.2201 -23L27.1023 -21.8822L28.2201 -20.7645L29.3378 -21.8822Z" fill="black" fill-opacity="0.05"/>
<path d="M43.3891 -21.8822L42.2713 -23L41.1535 -21.8822L42.2713 -20.7645L43.3891 -21.8822Z" fill="black" fill-opacity="0.05"/>
<path d="M57.4403 -21.8822L56.3225 -23L55.2048 -21.8822L56.3225 -20.7645L57.4403 -21.8822Z" fill="black" fill-opacity="0.05"/>
<path d="M71.4914 -21.8822L70.3736 -23L69.2558 -21.8822L70.3736 -20.7645L71.4914 -21.8822Z" fill="black" fill-opacity="0.05"/>
<path d="M85.5426 -21.8822L84.4248 -23L83.307 -21.8822L84.4248 -20.7645L85.5426 -21.8822Z" fill="black" fill-opacity="0.05"/>
<path d="M99.5936 -21.8822L98.4759 -23L97.3581 -21.8822L98.4759 -20.7645L99.5936 -21.8822Z" fill="black" fill-opacity="0.05"/>
<path d="M113.645 -21.8822L112.527 -23L111.409 -21.8822L112.527 -20.7645L113.645 -21.8822Z" fill="black" fill-opacity="0.05"/>
<path d="M127.696 -21.8822L126.578 -23L125.461 -21.8822L126.578 -20.7645L127.696 -21.8822Z" fill="black" fill-opacity="0.05"/>
<path d="M141.747 -21.8822L140.629 -23L139.512 -21.8822L140.629 -20.7645L141.747 -21.8822Z" fill="black" fill-opacity="0.05"/>
<path d="M155.798 -21.8822L154.681 -23L153.563 -21.8822L154.681 -20.7645L155.798 -21.8822Z" fill="black" fill-opacity="0.05"/>
<path d="M169.85 -21.8822L168.732 -23L167.614 -21.8822L168.732 -20.7645L169.85 -21.8822Z" fill="black" fill-opacity="0.05"/>
<path d="M183.901 -21.8822L182.783 -23L181.665 -21.8822L182.783 -20.7645L183.901 -21.8822Z" fill="black" fill-opacity="0.05"/>
<path d="M197.952 -21.8822L196.834 -23L195.716 -21.8822L196.834 -20.7645L197.952 -21.8822Z" fill="black" fill-opacity="0.05"/>
<path d="M212.003 -21.8822L210.885 -23L209.767 -21.8822L210.885 -20.7645L212.003 -21.8822Z" fill="black" fill-opacity="0.05"/>
<path d="M226.054 -21.8822L224.936 -23L223.819 -21.8822L224.936 -20.7645L226.054 -21.8822Z" fill="black" fill-opacity="0.05"/>
<path d="M240.105 -21.8822L238.988 -23L237.87 -21.8822L238.988 -20.7645L240.105 -21.8822Z" fill="black" fill-opacity="0.05"/>
<path d="M254.156 -21.8822L253.039 -23L251.921 -21.8822L253.039 -20.7645L254.156 -21.8822Z" fill="black" fill-opacity="0.05"/>
<path d="M1.23553 -7.831L0.117764 -8.94876L-1 -7.831L0.117764 -6.71323L1.23553 -7.831Z" fill="black" fill-opacity="0.05"/>
<path d="M15.2868 -7.831L14.169 -8.94876L13.0512 -7.831L14.169 -6.71323L15.2868 -7.831Z" fill="black" fill-opacity="0.05"/>
<path d="M29.3378 -7.831L28.2201 -8.94876L27.1023 -7.831L28.2201 -6.71323L29.3378 -7.831Z" fill="black" fill-opacity="0.05"/>
<path d="M43.3891 -7.831L42.2713 -8.94876L41.1535 -7.831L42.2713 -6.71323L43.3891 -7.831Z" fill="black" fill-opacity="0.05"/>
<path d="M57.4403 -7.831L56.3225 -8.94876L55.2048 -7.831L56.3225 -6.71323L57.4403 -7.831Z" fill="black" fill-opacity="0.05"/>
<path d="M71.4914 -7.831L70.3736 -8.94876L69.2558 -7.831L70.3736 -6.71323L71.4914 -7.831Z" fill="black" fill-opacity="0.05"/>
<path d="M85.5426 -7.831L84.4248 -8.94876L83.307 -7.831L84.4248 -6.71323L85.5426 -7.831Z" fill="black" fill-opacity="0.05"/>
<path d="M99.5936 -7.831L98.4759 -8.94876L97.3581 -7.831L98.4759 -6.71323L99.5936 -7.831Z" fill="black" fill-opacity="0.05"/>
<path d="M113.645 -7.831L112.527 -8.94876L111.409 -7.831L112.527 -6.71323L113.645 -7.831Z" fill="black" fill-opacity="0.05"/>
<path d="M127.696 -7.831L126.578 -8.94876L125.461 -7.831L126.578 -6.71323L127.696 -7.831Z" fill="black" fill-opacity="0.05"/>
<path d="M141.747 -7.831L140.629 -8.94876L139.512 -7.831L140.629 -6.71323L141.747 -7.831Z" fill="black" fill-opacity="0.05"/>
<path d="M155.798 -7.831L154.681 -8.94876L153.563 -7.831L154.681 -6.71323L155.798 -7.831Z" fill="black" fill-opacity="0.05"/>
<path d="M169.85 -7.831L168.732 -8.94876L167.614 -7.831L168.732 -6.71323L169.85 -7.831Z" fill="black" fill-opacity="0.05"/>
<path d="M183.901 -7.831L182.783 -8.94876L181.665 -7.831L182.783 -6.71323L183.901 -7.831Z" fill="black" fill-opacity="0.05"/>
<path d="M197.952 -7.831L196.834 -8.94876L195.716 -7.831L196.834 -6.71323L197.952 -7.831Z" fill="black" fill-opacity="0.05"/>
<path d="M212.003 -7.831L210.885 -8.94876L209.767 -7.831L210.885 -6.71323L212.003 -7.831Z" fill="black" fill-opacity="0.05"/>
<path d="M226.054 -7.831L224.936 -8.94876L223.819 -7.831L224.936 -6.71323L226.054 -7.831Z" fill="black" fill-opacity="0.05"/>
<path d="M240.105 -7.831L238.988 -8.94876L237.87 -7.831L238.988 -6.71323L240.105 -7.831Z" fill="black" fill-opacity="0.05"/>
<path d="M254.156 -7.831L253.039 -8.94876L251.921 -7.831L253.039 -6.71323L254.156 -7.831Z" fill="black" fill-opacity="0.05"/>
<path d="M1.23553 6.22024L0.117764 5.10248L-1 6.22024L0.117764 7.338L1.23553 6.22024Z" fill="black" fill-opacity="0.05"/>
<path d="M15.2868 6.22024L14.169 5.10248L13.0512 6.22024L14.169 7.338L15.2868 6.22024Z" fill="black" fill-opacity="0.05"/>
<path d="M29.3378 6.22024L28.2201 5.10248L27.1023 6.22024L28.2201 7.338L29.3378 6.22024Z" fill="black" fill-opacity="0.05"/>
<path d="M43.3891 6.22024L42.2713 5.10248L41.1535 6.22024L42.2713 7.338L43.3891 6.22024Z" fill="black" fill-opacity="0.05"/>
<path d="M57.4403 6.22024L56.3225 5.10248L55.2048 6.22024L56.3225 7.338L57.4403 6.22024Z" fill="black" fill-opacity="0.05"/>
<path d="M71.4914 6.22024L70.3736 5.10248L69.2558 6.22024L70.3736 7.338L71.4914 6.22024Z" fill="black" fill-opacity="0.05"/>
<path d="M85.5426 6.22024L84.4248 5.10248L83.307 6.22024L84.4248 7.338L85.5426 6.22024Z" fill="black" fill-opacity="0.05"/>
<path d="M99.5936 6.22024L98.4759 5.10248L97.3581 6.22024L98.4759 7.338L99.5936 6.22024Z" fill="black" fill-opacity="0.05"/>
<path d="M113.645 6.22024L112.527 5.10248L111.409 6.22024L112.527 7.338L113.645 6.22024Z" fill="black" fill-opacity="0.05"/>
<path d="M127.696 6.22024L126.578 5.10248L125.461 6.22024L126.578 7.338L127.696 6.22024Z" fill="black" fill-opacity="0.05"/>
<path d="M141.747 6.22024L140.629 5.10248L139.512 6.22024L140.629 7.338L141.747 6.22024Z" fill="black" fill-opacity="0.05"/>
<path d="M155.798 6.22024L154.681 5.10248L153.563 6.22024L154.681 7.338L155.798 6.22024Z" fill="black" fill-opacity="0.05"/>
<path d="M169.85 6.22024L168.732 5.10248L167.614 6.22024L168.732 7.338L169.85 6.22024Z" fill="black" fill-opacity="0.05"/>
<path d="M183.901 6.22024L182.783 5.10248L181.665 6.22024L182.783 7.338L183.901 6.22024Z" fill="black" fill-opacity="0.05"/>
<path d="M197.952 6.22024L196.834 5.10248L195.716 6.22024L196.834 7.338L197.952 6.22024Z" fill="black" fill-opacity="0.05"/>
<path d="M212.003 6.22024L210.885 5.10248L209.767 6.22024L210.885 7.338L212.003 6.22024Z" fill="black" fill-opacity="0.05"/>
<path d="M226.054 6.22024L224.936 5.10248L223.819 6.22024L224.936 7.338L226.054 6.22024Z" fill="black" fill-opacity="0.05"/>
<path d="M240.105 6.22024L238.988 5.10248L237.87 6.22024L238.988 7.338L240.105 6.22024Z" fill="black" fill-opacity="0.05"/>
<path d="M254.156 6.22024L253.039 5.10248L251.921 6.22024L253.039 7.338L254.156 6.22024Z" fill="black" fill-opacity="0.05"/>
<path d="M1.23553 20.2715L0.117764 19.1537L-1 20.2715L0.117764 21.3892L1.23553 20.2715Z" fill="black" fill-opacity="0.05"/>
<path d="M15.2868 20.2715L14.169 19.1537L13.0512 20.2715L14.169 21.3892L15.2868 20.2715Z" fill="black" fill-opacity="0.05"/>
<path d="M29.3378 20.2715L28.2201 19.1537L27.1023 20.2715L28.2201 21.3892L29.3378 20.2715Z" fill="black" fill-opacity="0.05"/>
<path d="M43.3891 20.2715L42.2713 19.1537L41.1535 20.2715L42.2713 21.3892L43.3891 20.2715Z" fill="black" fill-opacity="0.05"/>
<path d="M57.4403 20.2715L56.3225 19.1537L55.2048 20.2715L56.3225 21.3892L57.4403 20.2715Z" fill="black" fill-opacity="0.05"/>
<path d="M71.4914 20.2715L70.3736 19.1537L69.2558 20.2715L70.3736 21.3892L71.4914 20.2715Z" fill="black" fill-opacity="0.05"/>
<path d="M85.5426 20.2715L84.4248 19.1537L83.307 20.2715L84.4248 21.3892L85.5426 20.2715Z" fill="black" fill-opacity="0.05"/>
<path d="M99.5936 20.2715L98.4759 19.1537L97.3581 20.2715L98.4759 21.3892L99.5936 20.2715Z" fill="black" fill-opacity="0.05"/>
<path d="M113.645 20.2715L112.527 19.1537L111.409 20.2715L112.527 21.3892L113.645 20.2715Z" fill="black" fill-opacity="0.05"/>
<path d="M127.696 20.2715L126.578 19.1537L125.461 20.2715L126.578 21.3892L127.696 20.2715Z" fill="black" fill-opacity="0.05"/>
<path d="M141.747 20.2715L140.629 19.1537L139.512 20.2715L140.629 21.3892L141.747 20.2715Z" fill="black" fill-opacity="0.05"/>
<path d="M155.798 20.2715L154.681 19.1537L153.563 20.2715L154.681 21.3892L155.798 20.2715Z" fill="black" fill-opacity="0.05"/>
<path d="M169.85 20.2715L168.732 19.1537L167.614 20.2715L168.732 21.3892L169.85 20.2715Z" fill="black" fill-opacity="0.05"/>
<path d="M183.901 20.2715L182.783 19.1537L181.665 20.2715L182.783 21.3892L183.901 20.2715Z" fill="black" fill-opacity="0.05"/>
<path d="M197.952 20.2715L196.834 19.1537L195.716 20.2715L196.834 21.3892L197.952 20.2715Z" fill="black" fill-opacity="0.05"/>
<path d="M212.003 20.2715L210.885 19.1537L209.767 20.2715L210.885 21.3892L212.003 20.2715Z" fill="black" fill-opacity="0.05"/>
<path d="M226.054 20.2715L224.936 19.1537L223.819 20.2715L224.936 21.3892L226.054 20.2715Z" fill="black" fill-opacity="0.05"/>
<path d="M240.105 20.2715L238.988 19.1537L237.87 20.2715L238.988 21.3892L240.105 20.2715Z" fill="black" fill-opacity="0.05"/>
<path d="M254.156 20.2715L253.039 19.1537L251.921 20.2715L253.039 21.3892L254.156 20.2715Z" fill="black" fill-opacity="0.05"/>
<path d="M1.23553 34.3225L0.117764 33.2048L-1 34.3225L0.117764 35.4403L1.23553 34.3225Z" fill="black" fill-opacity="0.05"/>
<path d="M15.2868 34.3225L14.169 33.2048L13.0512 34.3225L14.169 35.4403L15.2868 34.3225Z" fill="black" fill-opacity="0.05"/>
<path d="M29.3378 34.3225L28.2201 33.2048L27.1023 34.3225L28.2201 35.4403L29.3378 34.3225Z" fill="black" fill-opacity="0.05"/>
<path d="M43.3891 34.3225L42.2713 33.2048L41.1535 34.3225L42.2713 35.4403L43.3891 34.3225Z" fill="black" fill-opacity="0.05"/>
<path d="M57.4403 34.3225L56.3225 33.2048L55.2048 34.3225L56.3225 35.4403L57.4403 34.3225Z" fill="black" fill-opacity="0.05"/>
<path d="M71.4914 34.3225L70.3736 33.2048L69.2558 34.3225L70.3736 35.4403L71.4914 34.3225Z" fill="black" fill-opacity="0.05"/>
<path d="M85.5426 34.3225L84.4248 33.2048L83.307 34.3225L84.4248 35.4403L85.5426 34.3225Z" fill="black" fill-opacity="0.05"/>
<path d="M99.5936 34.3225L98.4759 33.2048L97.3581 34.3225L98.4759 35.4403L99.5936 34.3225Z" fill="black" fill-opacity="0.05"/>
<path d="M113.645 34.3225L112.527 33.2048L111.409 34.3225L112.527 35.4403L113.645 34.3225Z" fill="black" fill-opacity="0.05"/>
<path d="M127.696 34.3225L126.578 33.2048L125.461 34.3225L126.578 35.4403L127.696 34.3225Z" fill="black" fill-opacity="0.05"/>
<path d="M141.747 34.3225L140.629 33.2048L139.512 34.3225L140.629 35.4403L141.747 34.3225Z" fill="black" fill-opacity="0.05"/>
<path d="M155.798 34.3225L154.681 33.2048L153.563 34.3225L154.681 35.4403L155.798 34.3225Z" fill="black" fill-opacity="0.05"/>
<path d="M169.85 34.3225L168.732 33.2048L167.614 34.3225L168.732 35.4403L169.85 34.3225Z" fill="black" fill-opacity="0.05"/>
<path d="M183.901 34.3225L182.783 33.2048L181.665 34.3225L182.783 35.4403L183.901 34.3225Z" fill="black" fill-opacity="0.05"/>
<path d="M197.952 34.3225L196.834 33.2048L195.716 34.3225L196.834 35.4403L197.952 34.3225Z" fill="black" fill-opacity="0.05"/>
<path d="M212.003 34.3225L210.885 33.2048L209.767 34.3225L210.885 35.4403L212.003 34.3225Z" fill="black" fill-opacity="0.05"/>
<path d="M226.054 34.3225L224.936 33.2048L223.819 34.3225L224.936 35.4403L226.054 34.3225Z" fill="black" fill-opacity="0.05"/>
<path d="M240.105 34.3225L238.988 33.2048L237.87 34.3225L238.988 35.4403L240.105 34.3225Z" fill="black" fill-opacity="0.05"/>
<path d="M254.156 34.3225L253.039 33.2048L251.921 34.3225L253.039 35.4403L254.156 34.3225Z" fill="black" fill-opacity="0.05"/>
<path d="M1.23553 48.3738L0.117764 47.256L-1 48.3738L0.117764 49.4915L1.23553 48.3738Z" fill="black" fill-opacity="0.05"/>
<path d="M15.2868 48.3738L14.169 47.256L13.0512 48.3738L14.169 49.4915L15.2868 48.3738Z" fill="black" fill-opacity="0.05"/>
<path d="M29.3378 48.3738L28.2201 47.256L27.1023 48.3738L28.2201 49.4915L29.3378 48.3738Z" fill="black" fill-opacity="0.05"/>
<path d="M43.3891 48.3738L42.2713 47.256L41.1535 48.3738L42.2713 49.4915L43.3891 48.3738Z" fill="black" fill-opacity="0.05"/>
<path d="M57.4403 48.3738L56.3225 47.256L55.2048 48.3738L56.3225 49.4915L57.4403 48.3738Z" fill="black" fill-opacity="0.05"/>
<path d="M71.4914 48.3738L70.3736 47.256L69.2558 48.3738L70.3736 49.4915L71.4914 48.3738Z" fill="black" fill-opacity="0.05"/>
<path d="M85.5426 48.3738L84.4248 47.256L83.307 48.3738L84.4248 49.4915L85.5426 48.3738Z" fill="black" fill-opacity="0.05"/>
<path d="M99.5936 48.3738L98.4759 47.256L97.3581 48.3738L98.4759 49.4915L99.5936 48.3738Z" fill="black" fill-opacity="0.05"/>
<path d="M113.645 48.3738L112.527 47.256L111.409 48.3738L112.527 49.4915L113.645 48.3738Z" fill="black" fill-opacity="0.05"/>
<path d="M127.696 48.3738L126.578 47.256L125.461 48.3738L126.578 49.4915L127.696 48.3738Z" fill="black" fill-opacity="0.05"/>
<path d="M141.747 48.3738L140.629 47.256L139.512 48.3738L140.629 49.4915L141.747 48.3738Z" fill="black" fill-opacity="0.05"/>
<path d="M155.798 48.3738L154.681 47.256L153.563 48.3738L154.681 49.4915L155.798 48.3738Z" fill="black" fill-opacity="0.05"/>
<path d="M169.85 48.3738L168.732 47.256L167.614 48.3738L168.732 49.4915L169.85 48.3738Z" fill="black" fill-opacity="0.05"/>
<path d="M183.901 48.3738L182.783 47.256L181.665 48.3738L182.783 49.4915L183.901 48.3738Z" fill="black" fill-opacity="0.05"/>
<path d="M197.952 48.3738L196.834 47.256L195.716 48.3738L196.834 49.4915L197.952 48.3738Z" fill="black" fill-opacity="0.05"/>
<path d="M212.003 48.3738L210.885 47.256L209.767 48.3738L210.885 49.4915L212.003 48.3738Z" fill="black" fill-opacity="0.05"/>
<path d="M226.054 48.3738L224.936 47.256L223.819 48.3738L224.936 49.4915L226.054 48.3738Z" fill="black" fill-opacity="0.05"/>
<path d="M240.105 48.3738L238.988 47.256L237.87 48.3738L238.988 49.4915L240.105 48.3738Z" fill="black" fill-opacity="0.05"/>
<path d="M254.156 48.3738L253.039 47.256L251.921 48.3738L253.039 49.4915L254.156 48.3738Z" fill="black" fill-opacity="0.05"/>
<path d="M1.23553 62.425L0.117764 61.3072L-1 62.425L0.117764 63.5428L1.23553 62.425Z" fill="black" fill-opacity="0.05"/>
<path d="M15.2868 62.425L14.169 61.3072L13.0512 62.425L14.169 63.5428L15.2868 62.425Z" fill="black" fill-opacity="0.05"/>
<path d="M29.3378 62.425L28.2201 61.3072L27.1023 62.425L28.2201 63.5428L29.3378 62.425Z" fill="black" fill-opacity="0.05"/>
<path d="M43.3891 62.425L42.2713 61.3072L41.1535 62.425L42.2713 63.5428L43.3891 62.425Z" fill="black" fill-opacity="0.05"/>
<path d="M57.4403 62.425L56.3225 61.3072L55.2048 62.425L56.3225 63.5428L57.4403 62.425Z" fill="black" fill-opacity="0.05"/>
<path d="M71.4914 62.425L70.3736 61.3072L69.2558 62.425L70.3736 63.5428L71.4914 62.425Z" fill="black" fill-opacity="0.05"/>
<path d="M85.5426 62.425L84.4248 61.3072L83.307 62.425L84.4248 63.5428L85.5426 62.425Z" fill="black" fill-opacity="0.05"/>
<path d="M99.5936 62.425L98.4759 61.3072L97.3581 62.425L98.4759 63.5428L99.5936 62.425Z" fill="black" fill-opacity="0.05"/>
<path d="M113.645 62.425L112.527 61.3072L111.409 62.425L112.527 63.5428L113.645 62.425Z" fill="black" fill-opacity="0.05"/>
<path d="M127.696 62.425L126.578 61.3072L125.461 62.425L126.578 63.5428L127.696 62.425Z" fill="black" fill-opacity="0.05"/>
<path d="M141.747 62.425L140.629 61.3072L139.512 62.425L140.629 63.5428L141.747 62.425Z" fill="black" fill-opacity="0.05"/>
<path d="M155.798 62.425L154.681 61.3072L153.563 62.425L154.681 63.5428L155.798 62.425Z" fill="black" fill-opacity="0.05"/>
<path d="M169.85 62.425L168.732 61.3072L167.614 62.425L168.732 63.5428L169.85 62.425Z" fill="black" fill-opacity="0.05"/>
<path d="M183.901 62.425L182.783 61.3072L181.665 62.425L182.783 63.5428L183.901 62.425Z" fill="black" fill-opacity="0.05"/>
<path d="M197.952 62.425L196.834 61.3072L195.716 62.425L196.834 63.5428L197.952 62.425Z" fill="black" fill-opacity="0.05"/>
<path d="M212.003 62.425L210.885 61.3072L209.767 62.425L210.885 63.5428L212.003 62.425Z" fill="black" fill-opacity="0.05"/>
<path d="M226.054 62.425L224.936 61.3072L223.819 62.425L224.936 63.5428L226.054 62.425Z" fill="black" fill-opacity="0.05"/>
<path d="M240.105 62.425L238.988 61.3072L237.87 62.425L238.988 63.5428L240.105 62.425Z" fill="black" fill-opacity="0.05"/>
<path d="M254.156 62.425L253.039 61.3072L251.921 62.425L253.039 63.5428L254.156 62.425Z" fill="black" fill-opacity="0.05"/>
<path d="M1.23553 76.4759L0.117764 75.3581L-1 76.4759L0.117764 77.5937L1.23553 76.4759Z" fill="black" fill-opacity="0.05"/>
<path d="M15.2868 76.4759L14.169 75.3581L13.0512 76.4759L14.169 77.5937L15.2868 76.4759Z" fill="black" fill-opacity="0.05"/>
<path d="M29.3378 76.4759L28.2201 75.3581L27.1023 76.4759L28.2201 77.5937L29.3378 76.4759Z" fill="black" fill-opacity="0.05"/>
<path d="M43.3891 76.4759L42.2713 75.3581L41.1535 76.4759L42.2713 77.5937L43.3891 76.4759Z" fill="black" fill-opacity="0.05"/>
<path d="M57.4403 76.4759L56.3225 75.3581L55.2048 76.4759L56.3225 77.5937L57.4403 76.4759Z" fill="black" fill-opacity="0.05"/>
<path d="M71.4914 76.4759L70.3736 75.3581L69.2558 76.4759L70.3736 77.5937L71.4914 76.4759Z" fill="black" fill-opacity="0.05"/>
<path d="M85.5426 76.4759L84.4248 75.3581L83.307 76.4759L84.4248 77.5937L85.5426 76.4759Z" fill="black" fill-opacity="0.05"/>
<path d="M99.5936 76.4759L98.4759 75.3581L97.3581 76.4759L98.4759 77.5937L99.5936 76.4759Z" fill="black" fill-opacity="0.05"/>
<path d="M113.645 76.4759L112.527 75.3581L111.409 76.4759L112.527 77.5937L113.645 76.4759Z" fill="black" fill-opacity="0.05"/>
<path d="M127.696 76.4759L126.578 75.3581L125.461 76.4759L126.578 77.5937L127.696 76.4759Z" fill="black" fill-opacity="0.05"/>
<path d="M141.747 76.4759L140.629 75.3581L139.512 76.4759L140.629 77.5937L141.747 76.4759Z" fill="black" fill-opacity="0.05"/>
<path d="M155.798 76.4759L154.681 75.3581L153.563 76.4759L154.681 77.5937L155.798 76.4759Z" fill="black" fill-opacity="0.05"/>
<path d="M169.85 76.4759L168.732 75.3581L167.614 76.4759L168.732 77.5937L169.85 76.4759Z" fill="black" fill-opacity="0.05"/>
<path d="M183.901 76.4759L182.783 75.3581L181.665 76.4759L182.783 77.5937L183.901 76.4759Z" fill="black" fill-opacity="0.05"/>
<path d="M197.952 76.4759L196.834 75.3581L195.716 76.4759L196.834 77.5937L197.952 76.4759Z" fill="black" fill-opacity="0.05"/>
<path d="M212.003 76.4759L210.885 75.3581L209.767 76.4759L210.885 77.5937L212.003 76.4759Z" fill="black" fill-opacity="0.05"/>
<path d="M226.054 76.4759L224.936 75.3581L223.819 76.4759L224.936 77.5937L226.054 76.4759Z" fill="black" fill-opacity="0.05"/>
<path d="M240.105 76.4759L238.988 75.3581L237.87 76.4759L238.988 77.5937L240.105 76.4759Z" fill="black" fill-opacity="0.05"/>
<path d="M254.156 76.4759L253.039 75.3581L251.921 76.4759L253.039 77.5937L254.156 76.4759Z" fill="black" fill-opacity="0.05"/>
<path d="M1.23553 90.5273L0.117764 89.4095L-1 90.5273L0.117764 91.6451L1.23553 90.5273Z" fill="black" fill-opacity="0.05"/>
<path d="M15.2868 90.5273L14.169 89.4095L13.0512 90.5273L14.169 91.6451L15.2868 90.5273Z" fill="black" fill-opacity="0.05"/>
<path d="M29.3378 90.5273L28.2201 89.4095L27.1023 90.5273L28.2201 91.6451L29.3378 90.5273Z" fill="black" fill-opacity="0.05"/>
<path d="M43.3891 90.5273L42.2713 89.4095L41.1535 90.5273L42.2713 91.6451L43.3891 90.5273Z" fill="black" fill-opacity="0.05"/>
<path d="M57.4403 90.5273L56.3225 89.4095L55.2048 90.5273L56.3225 91.6451L57.4403 90.5273Z" fill="black" fill-opacity="0.05"/>
<path d="M71.4914 90.5273L70.3736 89.4095L69.2558 90.5273L70.3736 91.6451L71.4914 90.5273Z" fill="black" fill-opacity="0.05"/>
<path d="M85.5426 90.5273L84.4248 89.4095L83.307 90.5273L84.4248 91.6451L85.5426 90.5273Z" fill="black" fill-opacity="0.05"/>
<path d="M99.5936 90.5273L98.4759 89.4095L97.3581 90.5273L98.4759 91.6451L99.5936 90.5273Z" fill="black" fill-opacity="0.05"/>
<path d="M113.645 90.5273L112.527 89.4095L111.409 90.5273L112.527 91.6451L113.645 90.5273Z" fill="black" fill-opacity="0.05"/>
<path d="M127.696 90.5273L126.578 89.4095L125.461 90.5273L126.578 91.6451L127.696 90.5273Z" fill="black" fill-opacity="0.05"/>
<path d="M141.747 90.5273L140.629 89.4095L139.512 90.5273L140.629 91.6451L141.747 90.5273Z" fill="black" fill-opacity="0.05"/>
<path d="M155.798 90.5273L154.681 89.4095L153.563 90.5273L154.681 91.6451L155.798 90.5273Z" fill="black" fill-opacity="0.05"/>
<path d="M169.85 90.5273L168.732 89.4095L167.614 90.5273L168.732 91.6451L169.85 90.5273Z" fill="black" fill-opacity="0.05"/>
<path d="M183.901 90.5273L182.783 89.4095L181.665 90.5273L182.783 91.6451L183.901 90.5273Z" fill="black" fill-opacity="0.05"/>
<path d="M197.952 90.5273L196.834 89.4095L195.716 90.5273L196.834 91.6451L197.952 90.5273Z" fill="black" fill-opacity="0.05"/>
<path d="M212.003 90.5273L210.885 89.4095L209.767 90.5273L210.885 91.6451L212.003 90.5273Z" fill="black" fill-opacity="0.05"/>
<path d="M226.054 90.5273L224.936 89.4095L223.819 90.5273L224.936 91.6451L226.054 90.5273Z" fill="black" fill-opacity="0.05"/>
<path d="M240.105 90.5273L238.988 89.4095L237.87 90.5273L238.988 91.6451L240.105 90.5273Z" fill="black" fill-opacity="0.05"/>
<path d="M254.156 90.5273L253.039 89.4095L251.921 90.5273L253.039 91.6451L254.156 90.5273Z" fill="black" fill-opacity="0.05"/>
<path d="M1.23553 104.579L0.117764 103.461L-1 104.579L0.117764 105.696L1.23553 104.579Z" fill="black" fill-opacity="0.05"/>
<path d="M15.2868 104.579L14.169 103.461L13.0512 104.579L14.169 105.696L15.2868 104.579Z" fill="black" fill-opacity="0.05"/>
<path d="M29.3378 104.579L28.2201 103.461L27.1023 104.579L28.2201 105.696L29.3378 104.579Z" fill="black" fill-opacity="0.05"/>
<path d="M43.3891 104.579L42.2713 103.461L41.1535 104.579L42.2713 105.696L43.3891 104.579Z" fill="black" fill-opacity="0.05"/>
<path d="M57.4403 104.579L56.3225 103.461L55.2048 104.579L56.3225 105.696L57.4403 104.579Z" fill="black" fill-opacity="0.05"/>
<path d="M71.4914 104.579L70.3736 103.461L69.2558 104.579L70.3736 105.696L71.4914 104.579Z" fill="black" fill-opacity="0.05"/>
<path d="M85.5426 104.579L84.4248 103.461L83.307 104.579L84.4248 105.696L85.5426 104.579Z" fill="black" fill-opacity="0.05"/>
<path d="M99.5936 104.579L98.4759 103.461L97.3581 104.579L98.4759 105.696L99.5936 104.579Z" fill="black" fill-opacity="0.05"/>
<path d="M113.645 104.579L112.527 103.461L111.409 104.579L112.527 105.696L113.645 104.579Z" fill="black" fill-opacity="0.05"/>
<path d="M127.696 104.579L126.578 103.461L125.461 104.579L126.578 105.696L127.696 104.579Z" fill="black" fill-opacity="0.05"/>
<path d="M141.747 104.579L140.629 103.461L139.512 104.579L140.629 105.696L141.747 104.579Z" fill="black" fill-opacity="0.05"/>
<path d="M155.798 104.579L154.681 103.461L153.563 104.579L154.681 105.696L155.798 104.579Z" fill="black" fill-opacity="0.05"/>
<path d="M169.85 104.579L168.732 103.461L167.614 104.579L168.732 105.696L169.85 104.579Z" fill="black" fill-opacity="0.05"/>
<path d="M183.901 104.579L182.783 103.461L181.665 104.579L182.783 105.696L183.901 104.579Z" fill="black" fill-opacity="0.05"/>
<path d="M197.952 104.579L196.834 103.461L195.716 104.579L196.834 105.696L197.952 104.579Z" fill="black" fill-opacity="0.05"/>
<path d="M212.003 104.579L210.885 103.461L209.767 104.579L210.885 105.696L212.003 104.579Z" fill="black" fill-opacity="0.05"/>
<path d="M226.054 104.579L224.936 103.461L223.819 104.579L224.936 105.696L226.054 104.579Z" fill="black" fill-opacity="0.05"/>
<path d="M240.105 104.579L238.988 103.461L237.87 104.579L238.988 105.696L240.105 104.579Z" fill="black" fill-opacity="0.05"/>
<path d="M254.156 104.579L253.039 103.461L251.921 104.579L253.039 105.696L254.156 104.579Z" fill="black" fill-opacity="0.05"/>
<path d="M1.23553 118.63L0.117764 117.512L-1 118.63L0.117764 119.747L1.23553 118.63Z" fill="black" fill-opacity="0.05"/>
<path d="M15.2868 118.63L14.169 117.512L13.0512 118.63L14.169 119.747L15.2868 118.63Z" fill="black" fill-opacity="0.05"/>
<path d="M29.3378 118.63L28.2201 117.512L27.1023 118.63L28.2201 119.747L29.3378 118.63Z" fill="black" fill-opacity="0.05"/>
<path d="M43.3891 118.63L42.2713 117.512L41.1535 118.63L42.2713 119.747L43.3891 118.63Z" fill="black" fill-opacity="0.05"/>
<path d="M57.4403 118.63L56.3225 117.512L55.2048 118.63L56.3225 119.747L57.4403 118.63Z" fill="black" fill-opacity="0.05"/>
<path d="M71.4914 118.63L70.3736 117.512L69.2558 118.63L70.3736 119.747L71.4914 118.63Z" fill="black" fill-opacity="0.05"/>
<path d="M85.5426 118.63L84.4248 117.512L83.307 118.63L84.4248 119.747L85.5426 118.63Z" fill="black" fill-opacity="0.05"/>
<path d="M99.5936 118.63L98.4759 117.512L97.3581 118.63L98.4759 119.747L99.5936 118.63Z" fill="black" fill-opacity="0.05"/>
<path d="M113.645 118.63L112.527 117.512L111.409 118.63L112.527 119.747L113.645 118.63Z" fill="black" fill-opacity="0.05"/>
<path d="M127.696 118.63L126.578 117.512L125.461 118.63L126.578 119.747L127.696 118.63Z" fill="black" fill-opacity="0.05"/>
<path d="M141.747 118.63L140.629 117.512L139.512 118.63L140.629 119.747L141.747 118.63Z" fill="black" fill-opacity="0.05"/>
<path d="M155.798 118.63L154.681 117.512L153.563 118.63L154.681 119.747L155.798 118.63Z" fill="black" fill-opacity="0.05"/>
<path d="M169.85 118.63L168.732 117.512L167.614 118.63L168.732 119.747L169.85 118.63Z" fill="black" fill-opacity="0.05"/>
<path d="M183.901 118.63L182.783 117.512L181.665 118.63L182.783 119.747L183.901 118.63Z" fill="black" fill-opacity="0.05"/>
<path d="M197.952 118.63L196.834 117.512L195.716 118.63L196.834 119.747L197.952 118.63Z" fill="black" fill-opacity="0.05"/>
<path d="M212.003 118.63L210.885 117.512L209.767 118.63L210.885 119.747L212.003 118.63Z" fill="black" fill-opacity="0.05"/>
<path d="M226.054 118.63L224.936 117.512L223.819 118.63L224.936 119.747L226.054 118.63Z" fill="black" fill-opacity="0.05"/>
<path d="M240.105 118.63L238.988 117.512L237.87 118.63L238.988 119.747L240.105 118.63Z" fill="black" fill-opacity="0.05"/>
<path d="M254.156 118.63L253.039 117.512L251.921 118.63L253.039 119.747L254.156 118.63Z" fill="black" fill-opacity="0.05"/>
<path d="M1.23553 132.681L0.117764 131.563L-1 132.681L0.117764 133.798L1.23553 132.681Z" fill="black" fill-opacity="0.05"/>
<path d="M15.2868 132.681L14.169 131.563L13.0512 132.681L14.169 133.798L15.2868 132.681Z" fill="black" fill-opacity="0.05"/>
<path d="M29.3378 132.681L28.2201 131.563L27.1023 132.681L28.2201 133.798L29.3378 132.681Z" fill="black" fill-opacity="0.05"/>
<path d="M43.3891 132.681L42.2713 131.563L41.1535 132.681L42.2713 133.798L43.3891 132.681Z" fill="black" fill-opacity="0.05"/>
<path d="M57.4403 132.681L56.3225 131.563L55.2048 132.681L56.3225 133.798L57.4403 132.681Z" fill="black" fill-opacity="0.05"/>
<path d="M71.4914 132.681L70.3736 131.563L69.2558 132.681L70.3736 133.798L71.4914 132.681Z" fill="black" fill-opacity="0.05"/>
<path d="M85.5426 132.681L84.4248 131.563L83.307 132.681L84.4248 133.798L85.5426 132.681Z" fill="black" fill-opacity="0.05"/>
<path d="M99.5936 132.681L98.4759 131.563L97.3581 132.681L98.4759 133.798L99.5936 132.681Z" fill="black" fill-opacity="0.05"/>
<path d="M113.645 132.681L112.527 131.563L111.409 132.681L112.527 133.798L113.645 132.681Z" fill="black" fill-opacity="0.05"/>
<path d="M127.696 132.681L126.578 131.563L125.461 132.681L126.578 133.798L127.696 132.681Z" fill="black" fill-opacity="0.05"/>
<path d="M141.747 132.681L140.629 131.563L139.512 132.681L140.629 133.798L141.747 132.681Z" fill="black" fill-opacity="0.05"/>
<path d="M155.798 132.681L154.681 131.563L153.563 132.681L154.681 133.798L155.798 132.681Z" fill="black" fill-opacity="0.05"/>
<path d="M169.85 132.681L168.732 131.563L167.614 132.681L168.732 133.798L169.85 132.681Z" fill="black" fill-opacity="0.05"/>
<path d="M183.901 132.681L182.783 131.563L181.665 132.681L182.783 133.798L183.901 132.681Z" fill="black" fill-opacity="0.05"/>
<path d="M197.952 132.681L196.834 131.563L195.716 132.681L196.834 133.798L197.952 132.681Z" fill="black" fill-opacity="0.05"/>
<path d="M212.003 132.681L210.885 131.563L209.767 132.681L210.885 133.798L212.003 132.681Z" fill="black" fill-opacity="0.05"/>
<path d="M226.054 132.681L224.936 131.563L223.819 132.681L224.936 133.798L226.054 132.681Z" fill="black" fill-opacity="0.05"/>
<path d="M240.105 132.681L238.988 131.563L237.87 132.681L238.988 133.798L240.105 132.681Z" fill="black" fill-opacity="0.05"/>
<path d="M254.156 132.681L253.039 131.563L251.921 132.681L253.039 133.798L254.156 132.681Z" fill="black" fill-opacity="0.05"/>
<path d="M1.23553 146.732L0.117764 145.614L-1 146.732L0.117764 147.85L1.23553 146.732Z" fill="black" fill-opacity="0.05"/>
<path d="M15.2868 146.732L14.169 145.614L13.0512 146.732L14.169 147.85L15.2868 146.732Z" fill="black" fill-opacity="0.05"/>
<path d="M29.3378 146.732L28.2201 145.614L27.1023 146.732L28.2201 147.85L29.3378 146.732Z" fill="black" fill-opacity="0.05"/>
<path d="M43.3891 146.732L42.2713 145.614L41.1535 146.732L42.2713 147.85L43.3891 146.732Z" fill="black" fill-opacity="0.05"/>
<path d="M57.4403 146.732L56.3225 145.614L55.2048 146.732L56.3225 147.85L57.4403 146.732Z" fill="black" fill-opacity="0.05"/>
<path d="M71.4914 146.732L70.3736 145.614L69.2558 146.732L70.3736 147.85L71.4914 146.732Z" fill="black" fill-opacity="0.05"/>
<path d="M85.5426 146.732L84.4248 145.614L83.307 146.732L84.4248 147.85L85.5426 146.732Z" fill="black" fill-opacity="0.05"/>
<path d="M99.5936 146.732L98.4759 145.614L97.3581 146.732L98.4759 147.85L99.5936 146.732Z" fill="black" fill-opacity="0.05"/>
<path d="M113.645 146.732L112.527 145.614L111.409 146.732L112.527 147.85L113.645 146.732Z" fill="black" fill-opacity="0.05"/>
<path d="M127.696 146.732L126.578 145.614L125.461 146.732L126.578 147.85L127.696 146.732Z" fill="black" fill-opacity="0.05"/>
<path d="M141.747 146.732L140.629 145.614L139.512 146.732L140.629 147.85L141.747 146.732Z" fill="black" fill-opacity="0.05"/>
<path d="M155.798 146.732L154.681 145.614L153.563 146.732L154.681 147.85L155.798 146.732Z" fill="black" fill-opacity="0.05"/>
<path d="M169.85 146.732L168.732 145.614L167.614 146.732L168.732 147.85L169.85 146.732Z" fill="black" fill-opacity="0.05"/>
<path d="M183.901 146.732L182.783 145.614L181.665 146.732L182.783 147.85L183.901 146.732Z" fill="black" fill-opacity="0.05"/>
<path d="M197.952 146.732L196.834 145.614L195.716 146.732L196.834 147.85L197.952 146.732Z" fill="black" fill-opacity="0.05"/>
<path d="M212.003 146.732L210.885 145.614L209.767 146.732L210.885 147.85L212.003 146.732Z" fill="black" fill-opacity="0.05"/>
<path d="M226.054 146.732L224.936 145.614L223.819 146.732L224.936 147.85L226.054 146.732Z" fill="black" fill-opacity="0.05"/>
<path d="M240.105 146.732L238.988 145.614L237.87 146.732L238.988 147.85L240.105 146.732Z" fill="black" fill-opacity="0.05"/>
<path d="M254.156 146.732L253.039 145.614L251.921 146.732L253.039 147.85L254.156 146.732Z" fill="black" fill-opacity="0.05"/>
<path d="M1.23553 160.783L0.117764 159.665L-1 160.783L0.117764 161.901L1.23553 160.783Z" fill="black" fill-opacity="0.05"/>
<path d="M15.2868 160.783L14.169 159.665L13.0512 160.783L14.169 161.901L15.2868 160.783Z" fill="black" fill-opacity="0.05"/>
<path d="M29.3378 160.783L28.2201 159.665L27.1023 160.783L28.2201 161.901L29.3378 160.783Z" fill="black" fill-opacity="0.05"/>
<path d="M43.3891 160.783L42.2713 159.665L41.1535 160.783L42.2713 161.901L43.3891 160.783Z" fill="black" fill-opacity="0.05"/>
<path d="M57.4403 160.783L56.3225 159.665L55.2048 160.783L56.3225 161.901L57.4403 160.783Z" fill="black" fill-opacity="0.05"/>
<path d="M71.4914 160.783L70.3736 159.665L69.2558 160.783L70.3736 161.901L71.4914 160.783Z" fill="black" fill-opacity="0.05"/>
<path d="M85.5426 160.783L84.4248 159.665L83.307 160.783L84.4248 161.901L85.5426 160.783Z" fill="black" fill-opacity="0.05"/>
<path d="M99.5936 160.783L98.4759 159.665L97.3581 160.783L98.4759 161.901L99.5936 160.783Z" fill="black" fill-opacity="0.05"/>
<path d="M113.645 160.783L112.527 159.665L111.409 160.783L112.527 161.901L113.645 160.783Z" fill="black" fill-opacity="0.05"/>
<path d="M127.696 160.783L126.578 159.665L125.461 160.783L126.578 161.901L127.696 160.783Z" fill="black" fill-opacity="0.05"/>
<path d="M141.747 160.783L140.629 159.665L139.512 160.783L140.629 161.901L141.747 160.783Z" fill="black" fill-opacity="0.05"/>
<path d="M155.798 160.783L154.681 159.665L153.563 160.783L154.681 161.901L155.798 160.783Z" fill="black" fill-opacity="0.05"/>
<path d="M169.85 160.783L168.732 159.665L167.614 160.783L168.732 161.901L169.85 160.783Z" fill="black" fill-opacity="0.05"/>
<path d="M183.901 160.783L182.783 159.665L181.665 160.783L182.783 161.901L183.901 160.783Z" fill="black" fill-opacity="0.05"/>
<path d="M197.952 160.783L196.834 159.665L195.716 160.783L196.834 161.901L197.952 160.783Z" fill="black" fill-opacity="0.05"/>
<path d="M212.003 160.783L210.885 159.665L209.767 160.783L210.885 161.901L212.003 160.783Z" fill="black" fill-opacity="0.05"/>
<path d="M226.054 160.783L224.936 159.665L223.819 160.783L224.936 161.901L226.054 160.783Z" fill="black" fill-opacity="0.05"/>
<path d="M240.105 160.783L238.988 159.665L237.87 160.783L238.988 161.901L240.105 160.783Z" fill="black" fill-opacity="0.05"/>
<path d="M254.156 160.783L253.039 159.665L251.921 160.783L253.039 161.901L254.156 160.783Z" fill="black" fill-opacity="0.05"/>
<path d="M1.23553 174.834L0.117764 173.716L-1 174.834L0.117764 175.952L1.23553 174.834Z" fill="black" fill-opacity="0.05"/>
<path d="M15.2868 174.834L14.169 173.716L13.0512 174.834L14.169 175.952L15.2868 174.834Z" fill="black" fill-opacity="0.05"/>
<path d="M29.3378 174.834L28.2201 173.716L27.1023 174.834L28.2201 175.952L29.3378 174.834Z" fill="black" fill-opacity="0.05"/>
<path d="M43.3891 174.834L42.2713 173.716L41.1535 174.834L42.2713 175.952L43.3891 174.834Z" fill="black" fill-opacity="0.05"/>
<path d="M57.4403 174.834L56.3225 173.716L55.2048 174.834L56.3225 175.952L57.4403 174.834Z" fill="black" fill-opacity="0.05"/>
<path d="M71.4914 174.834L70.3736 173.716L69.2558 174.834L70.3736 175.952L71.4914 174.834Z" fill="black" fill-opacity="0.05"/>
<path d="M85.5426 174.834L84.4248 173.716L83.307 174.834L84.4248 175.952L85.5426 174.834Z" fill="black" fill-opacity="0.05"/>
<path d="M99.5936 174.834L98.4759 173.716L97.3581 174.834L98.4759 175.952L99.5936 174.834Z" fill="black" fill-opacity="0.05"/>
<path d="M113.645 174.834L112.527 173.716L111.409 174.834L112.527 175.952L113.645 174.834Z" fill="black" fill-opacity="0.05"/>
<path d="M127.696 174.834L126.578 173.716L125.461 174.834L126.578 175.952L127.696 174.834Z" fill="black" fill-opacity="0.05"/>
<path d="M141.747 174.834L140.629 173.716L139.512 174.834L140.629 175.952L141.747 174.834Z" fill="black" fill-opacity="0.05"/>
<path d="M155.798 174.834L154.681 173.716L153.563 174.834L154.681 175.952L155.798 174.834Z" fill="black" fill-opacity="0.05"/>
<path d="M169.85 174.834L168.732 173.716L167.614 174.834L168.732 175.952L169.85 174.834Z" fill="black" fill-opacity="0.05"/>
<path d="M183.901 174.834L182.783 173.716L181.665 174.834L182.783 175.952L183.901 174.834Z" fill="black" fill-opacity="0.05"/>
<path d="M197.952 174.834L196.834 173.716L195.716 174.834L196.834 175.952L197.952 174.834Z" fill="black" fill-opacity="0.05"/>
<path d="M212.003 174.834L210.885 173.716L209.767 174.834L210.885 175.952L212.003 174.834Z" fill="black" fill-opacity="0.05"/>
<path d="M226.054 174.834L224.936 173.716L223.819 174.834L224.936 175.952L226.054 174.834Z" fill="black" fill-opacity="0.05"/>
<path d="M240.105 174.834L238.988 173.716L237.87 174.834L238.988 175.952L240.105 174.834Z" fill="black" fill-opacity="0.05"/>
<path d="M254.156 174.834L253.039 173.716L251.921 174.834L253.039 175.952L254.156 174.834Z" fill="black" fill-opacity="0.05"/>
<path d="M1.23553 188.886L0.117764 187.768L-1 188.886L0.117764 190.003L1.23553 188.886Z" fill="black" fill-opacity="0.05"/>
<path d="M15.2868 188.886L14.169 187.768L13.0512 188.886L14.169 190.003L15.2868 188.886Z" fill="black" fill-opacity="0.05"/>
<path d="M29.3378 188.886L28.2201 187.768L27.1023 188.886L28.2201 190.003L29.3378 188.886Z" fill="black" fill-opacity="0.05"/>
<path d="M43.3891 188.886L42.2713 187.768L41.1535 188.886L42.2713 190.003L43.3891 188.886Z" fill="black" fill-opacity="0.05"/>
<path d="M57.4403 188.886L56.3225 187.768L55.2048 188.886L56.3225 190.003L57.4403 188.886Z" fill="black" fill-opacity="0.05"/>
<path d="M71.4914 188.886L70.3736 187.768L69.2558 188.886L70.3736 190.003L71.4914 188.886Z" fill="black" fill-opacity="0.05"/>
<path d="M85.5426 188.886L84.4248 187.768L83.307 188.886L84.4248 190.003L85.5426 188.886Z" fill="black" fill-opacity="0.05"/>
<path d="M99.5936 188.886L98.4759 187.768L97.3581 188.886L98.4759 190.003L99.5936 188.886Z" fill="black" fill-opacity="0.05"/>
<path d="M113.645 188.886L112.527 187.768L111.409 188.886L112.527 190.003L113.645 188.886Z" fill="black" fill-opacity="0.05"/>
<path d="M127.696 188.886L126.578 187.768L125.461 188.886L126.578 190.003L127.696 188.886Z" fill="black" fill-opacity="0.05"/>
<path d="M141.747 188.886L140.629 187.768L139.512 188.886L140.629 190.003L141.747 188.886Z" fill="black" fill-opacity="0.05"/>
<path d="M155.798 188.886L154.681 187.768L153.563 188.886L154.681 190.003L155.798 188.886Z" fill="black" fill-opacity="0.05"/>
<path d="M169.85 188.886L168.732 187.768L167.614 188.886L168.732 190.003L169.85 188.886Z" fill="black" fill-opacity="0.05"/>
<path d="M183.901 188.886L182.783 187.768L181.665 188.886L182.783 190.003L183.901 188.886Z" fill="black" fill-opacity="0.05"/>
<path d="M197.952 188.886L196.834 187.768L195.716 188.886L196.834 190.003L197.952 188.886Z" fill="black" fill-opacity="0.05"/>
<path d="M212.003 188.886L210.885 187.768L209.767 188.886L210.885 190.003L212.003 188.886Z" fill="black" fill-opacity="0.05"/>
<path d="M226.054 188.886L224.936 187.768L223.819 188.886L224.936 190.003L226.054 188.886Z" fill="black" fill-opacity="0.05"/>
<path d="M240.105 188.886L238.988 187.768L237.87 188.886L238.988 190.003L240.105 188.886Z" fill="black" fill-opacity="0.05"/>
<path d="M254.156 188.886L253.039 187.768L251.921 188.886L253.039 190.003L254.156 188.886Z" fill="black" fill-opacity="0.05"/>
<path d="M1.23553 202.937L0.117764 201.819L-1 202.937L0.117764 204.054L1.23553 202.937Z" fill="black" fill-opacity="0.05"/>
<path d="M15.2868 202.937L14.169 201.819L13.0512 202.937L14.169 204.054L15.2868 202.937Z" fill="black" fill-opacity="0.05"/>
<path d="M29.3378 202.937L28.2201 201.819L27.1023 202.937L28.2201 204.054L29.3378 202.937Z" fill="black" fill-opacity="0.05"/>
<path d="M43.3891 202.937L42.2713 201.819L41.1535 202.937L42.2713 204.054L43.3891 202.937Z" fill="black" fill-opacity="0.05"/>
<path d="M57.4403 202.937L56.3225 201.819L55.2048 202.937L56.3225 204.054L57.4403 202.937Z" fill="black" fill-opacity="0.05"/>
<path d="M71.4914 202.937L70.3736 201.819L69.2558 202.937L70.3736 204.054L71.4914 202.937Z" fill="black" fill-opacity="0.05"/>
<path d="M85.5426 202.937L84.4248 201.819L83.307 202.937L84.4248 204.054L85.5426 202.937Z" fill="black" fill-opacity="0.05"/>
<path d="M99.5936 202.937L98.4759 201.819L97.3581 202.937L98.4759 204.054L99.5936 202.937Z" fill="black" fill-opacity="0.05"/>
<path d="M113.645 202.937L112.527 201.819L111.409 202.937L112.527 204.054L113.645 202.937Z" fill="black" fill-opacity="0.05"/>
<path d="M127.696 202.937L126.578 201.819L125.461 202.937L126.578 204.054L127.696 202.937Z" fill="black" fill-opacity="0.05"/>
<path d="M141.747 202.937L140.629 201.819L139.512 202.937L140.629 204.054L141.747 202.937Z" fill="black" fill-opacity="0.05"/>
<path d="M155.798 202.937L154.681 201.819L153.563 202.937L154.681 204.054L155.798 202.937Z" fill="black" fill-opacity="0.05"/>
<path d="M169.85 202.937L168.732 201.819L167.614 202.937L168.732 204.054L169.85 202.937Z" fill="black" fill-opacity="0.05"/>
<path d="M183.901 202.937L182.783 201.819L181.665 202.937L182.783 204.054L183.901 202.937Z" fill="black" fill-opacity="0.05"/>
<path d="M197.952 202.937L196.834 201.819L195.716 202.937L196.834 204.054L197.952 202.937Z" fill="black" fill-opacity="0.05"/>
<path d="M212.003 202.937L210.885 201.819L209.767 202.937L210.885 204.054L212.003 202.937Z" fill="black" fill-opacity="0.05"/>
<path d="M226.054 202.937L224.936 201.819L223.819 202.937L224.936 204.054L226.054 202.937Z" fill="black" fill-opacity="0.05"/>
<path d="M240.105 202.937L238.988 201.819L237.87 202.937L238.988 204.054L240.105 202.937Z" fill="black" fill-opacity="0.05"/>
<path d="M254.156 202.937L253.039 201.819L251.921 202.937L253.039 204.054L254.156 202.937Z" fill="black" fill-opacity="0.05"/>
<path d="M1.23553 216.988L0.117764 215.87L-1 216.988L0.117764 218.105L1.23553 216.988Z" fill="black" fill-opacity="0.05"/>
<path d="M15.2868 216.988L14.169 215.87L13.0512 216.988L14.169 218.105L15.2868 216.988Z" fill="black" fill-opacity="0.05"/>
<path d="M29.3378 216.988L28.2201 215.87L27.1023 216.988L28.2201 218.105L29.3378 216.988Z" fill="black" fill-opacity="0.05"/>
<path d="M43.3891 216.988L42.2713 215.87L41.1535 216.988L42.2713 218.105L43.3891 216.988Z" fill="black" fill-opacity="0.05"/>
<path d="M57.4403 216.988L56.3225 215.87L55.2048 216.988L56.3225 218.105L57.4403 216.988Z" fill="black" fill-opacity="0.05"/>
<path d="M71.4914 216.988L70.3736 215.87L69.2558 216.988L70.3736 218.105L71.4914 216.988Z" fill="black" fill-opacity="0.05"/>
<path d="M85.5426 216.988L84.4248 215.87L83.307 216.988L84.4248 218.105L85.5426 216.988Z" fill="black" fill-opacity="0.05"/>
<path d="M99.5936 216.988L98.4759 215.87L97.3581 216.988L98.4759 218.105L99.5936 216.988Z" fill="black" fill-opacity="0.05"/>
<path d="M113.645 216.988L112.527 215.87L111.409 216.988L112.527 218.105L113.645 216.988Z" fill="black" fill-opacity="0.05"/>
<path d="M127.696 216.988L126.578 215.87L125.461 216.988L126.578 218.105L127.696 216.988Z" fill="black" fill-opacity="0.05"/>
<path d="M141.747 216.988L140.629 215.87L139.512 216.988L140.629 218.105L141.747 216.988Z" fill="black" fill-opacity="0.05"/>
<path d="M155.798 216.988L154.681 215.87L153.563 216.988L154.681 218.105L155.798 216.988Z" fill="black" fill-opacity="0.05"/>
<path d="M169.85 216.988L168.732 215.87L167.614 216.988L168.732 218.105L169.85 216.988Z" fill="black" fill-opacity="0.05"/>
<path d="M183.901 216.988L182.783 215.87L181.665 216.988L182.783 218.105L183.901 216.988Z" fill="black" fill-opacity="0.05"/>
<path d="M197.952 216.988L196.834 215.87L195.716 216.988L196.834 218.105L197.952 216.988Z" fill="black" fill-opacity="0.05"/>
<path d="M212.003 216.988L210.885 215.87L209.767 216.988L210.885 218.105L212.003 216.988Z" fill="black" fill-opacity="0.05"/>
<path d="M226.054 216.988L224.936 215.87L223.819 216.988L224.936 218.105L226.054 216.988Z" fill="black" fill-opacity="0.05"/>
<path d="M240.105 216.988L238.988 215.87L237.87 216.988L238.988 218.105L240.105 216.988Z" fill="black" fill-opacity="0.05"/>
<path d="M254.156 216.988L253.039 215.87L251.921 216.988L253.039 218.105L254.156 216.988Z" fill="black" fill-opacity="0.05"/>
<path d="M1.23553 231.039L0.117764 229.921L-1 231.039L0.117764 232.157L1.23553 231.039Z" fill="black" fill-opacity="0.05"/>
<path d="M15.2868 231.039L14.169 229.921L13.0512 231.039L14.169 232.157L15.2868 231.039Z" fill="black" fill-opacity="0.05"/>
<path d="M29.3378 231.039L28.2201 229.921L27.1023 231.039L28.2201 232.157L29.3378 231.039Z" fill="black" fill-opacity="0.05"/>
<path d="M43.3891 231.039L42.2713 229.921L41.1535 231.039L42.2713 232.157L43.3891 231.039Z" fill="black" fill-opacity="0.05"/>
<path d="M57.4403 231.039L56.3225 229.921L55.2048 231.039L56.3225 232.157L57.4403 231.039Z" fill="black" fill-opacity="0.05"/>
<path d="M71.4914 231.039L70.3736 229.921L69.2558 231.039L70.3736 232.157L71.4914 231.039Z" fill="black" fill-opacity="0.05"/>
<path d="M85.5426 231.039L84.4248 229.921L83.307 231.039L84.4248 232.157L85.5426 231.039Z" fill="black" fill-opacity="0.05"/>
<path d="M99.5936 231.039L98.4759 229.921L97.3581 231.039L98.4759 232.157L99.5936 231.039Z" fill="black" fill-opacity="0.05"/>
<path d="M113.645 231.039L112.527 229.921L111.409 231.039L112.527 232.157L113.645 231.039Z" fill="black" fill-opacity="0.05"/>
<path d="M127.696 231.039L126.578 229.921L125.461 231.039L126.578 232.157L127.696 231.039Z" fill="black" fill-opacity="0.05"/>
<path d="M141.747 231.039L140.629 229.921L139.512 231.039L140.629 232.157L141.747 231.039Z" fill="black" fill-opacity="0.05"/>
<path d="M155.798 231.039L154.681 229.921L153.563 231.039L154.681 232.157L155.798 231.039Z" fill="black" fill-opacity="0.05"/>
<path d="M169.85 231.039L168.732 229.921L167.614 231.039L168.732 232.157L169.85 231.039Z" fill="black" fill-opacity="0.05"/>
<path d="M183.901 231.039L182.783 229.921L181.665 231.039L182.783 232.157L183.901 231.039Z" fill="black" fill-opacity="0.05"/>
<path d="M197.952 231.039L196.834 229.921L195.716 231.039L196.834 232.157L197.952 231.039Z" fill="black" fill-opacity="0.05"/>
<path d="M212.003 231.039L210.885 229.921L209.767 231.039L210.885 232.157L212.003 231.039Z" fill="black" fill-opacity="0.05"/>
<path d="M226.054 231.039L224.936 229.921L223.819 231.039L224.936 232.157L226.054 231.039Z" fill="black" fill-opacity="0.05"/>
<path d="M240.105 231.039L238.988 229.921L237.87 231.039L238.988 232.157L240.105 231.039Z" fill="black" fill-opacity="0.05"/>
<path d="M254.156 231.039L253.039 229.921L251.921 231.039L253.039 232.157L254.156 231.039Z" fill="black" fill-opacity="0.05"/>
<path d="M141.749 -21.8822L140.631 -23L139.514 -21.8822L140.631 -20.7645L141.749 -21.8822Z" fill="black" fill-opacity="0.05"/>
<path d="M155.8 -21.8822L154.683 -23L153.565 -21.8822L154.683 -20.7645L155.8 -21.8822Z" fill="black" fill-opacity="0.05"/>
<path d="M169.851 -21.8822L168.734 -23L167.616 -21.8822L168.734 -20.7645L169.851 -21.8822Z" fill="black" fill-opacity="0.05"/>
<path d="M183.903 -21.8822L182.785 -23L181.667 -21.8822L182.785 -20.7645L183.903 -21.8822Z" fill="black" fill-opacity="0.05"/>
<path d="M197.954 -21.8822L196.836 -23L195.718 -21.8822L196.836 -20.7645L197.954 -21.8822Z" fill="black" fill-opacity="0.05"/>
<path d="M212.005 -21.8822L210.887 -23L209.769 -21.8822L210.887 -20.7645L212.005 -21.8822Z" fill="black" fill-opacity="0.05"/>
<path d="M226.056 -21.8822L224.938 -23L223.821 -21.8822L224.938 -20.7645L226.056 -21.8822Z" fill="black" fill-opacity="0.05"/>
<path d="M240.107 -21.8822L238.989 -23L237.872 -21.8822L238.989 -20.7645L240.107 -21.8822Z" fill="black" fill-opacity="0.05"/>
<path d="M254.158 -21.8822L253.041 -23L251.923 -21.8822L253.041 -20.7645L254.158 -21.8822Z" fill="black" fill-opacity="0.05"/>
<path d="M268.21 -21.8822L267.092 -23L265.974 -21.8822L267.092 -20.7645L268.21 -21.8822Z" fill="black" fill-opacity="0.05"/>
<path d="M282.261 -21.8822L281.143 -23L280.025 -21.8822L281.143 -20.7645L282.261 -21.8822Z" fill="black" fill-opacity="0.05"/>
<path d="M296.312 -21.8822L295.194 -23L294.076 -21.8822L295.194 -20.7645L296.312 -21.8822Z" fill="black" fill-opacity="0.05"/>
<path d="M310.363 -21.8822L309.245 -23L308.128 -21.8822L309.245 -20.7645L310.363 -21.8822Z" fill="black" fill-opacity="0.05"/>
<path d="M324.414 -21.8822L323.296 -23L322.179 -21.8822L323.296 -20.7645L324.414 -21.8822Z" fill="black" fill-opacity="0.05"/>
<path d="M338.465 -21.8822L337.348 -23L336.23 -21.8822L337.348 -20.7645L338.465 -21.8822Z" fill="black" fill-opacity="0.05"/>
<path d="M352.517 -21.8822L351.399 -23L350.281 -21.8822L351.399 -20.7645L352.517 -21.8822Z" fill="black" fill-opacity="0.05"/>
<path d="M366.568 -21.8822L365.45 -23L364.332 -21.8822L365.45 -20.7645L366.568 -21.8822Z" fill="black" fill-opacity="0.05"/>
<path d="M380.619 -21.8822L379.501 -23L378.383 -21.8822L379.501 -20.7645L380.619 -21.8822Z" fill="black" fill-opacity="0.05"/>
<path d="M394.67 -21.8822L393.552 -23L392.435 -21.8822L393.552 -20.7645L394.67 -21.8822Z" fill="black" fill-opacity="0.05"/>
<path d="M141.749 -7.83101L140.631 -8.94877L139.514 -7.83101L140.631 -6.71325L141.749 -7.83101Z" fill="black" fill-opacity="0.05"/>
<path d="M155.8 -7.83101L154.683 -8.94877L153.565 -7.83101L154.683 -6.71325L155.8 -7.83101Z" fill="black" fill-opacity="0.05"/>
<path d="M169.851 -7.83101L168.734 -8.94877L167.616 -7.83101L168.734 -6.71325L169.851 -7.83101Z" fill="black" fill-opacity="0.05"/>
<path d="M183.903 -7.83101L182.785 -8.94877L181.667 -7.83101L182.785 -6.71325L183.903 -7.83101Z" fill="black" fill-opacity="0.05"/>
<path d="M197.954 -7.83101L196.836 -8.94877L195.718 -7.83101L196.836 -6.71325L197.954 -7.83101Z" fill="black" fill-opacity="0.05"/>
<path d="M212.005 -7.83101L210.887 -8.94877L209.769 -7.83101L210.887 -6.71325L212.005 -7.83101Z" fill="black" fill-opacity="0.05"/>
<path d="M226.056 -7.83101L224.938 -8.94877L223.821 -7.83101L224.938 -6.71325L226.056 -7.83101Z" fill="black" fill-opacity="0.05"/>
<path d="M240.107 -7.83101L238.989 -8.94877L237.872 -7.83101L238.989 -6.71325L240.107 -7.83101Z" fill="black" fill-opacity="0.05"/>
<path d="M254.158 -7.83101L253.041 -8.94877L251.923 -7.83101L253.041 -6.71325L254.158 -7.83101Z" fill="black" fill-opacity="0.05"/>
<path d="M268.21 -7.83101L267.092 -8.94877L265.974 -7.83101L267.092 -6.71325L268.21 -7.83101Z" fill="black" fill-opacity="0.05"/>
<path d="M282.261 -7.83101L281.143 -8.94877L280.025 -7.83101L281.143 -6.71325L282.261 -7.83101Z" fill="black" fill-opacity="0.05"/>
<path d="M296.312 -7.83101L295.194 -8.94877L294.076 -7.83101L295.194 -6.71325L296.312 -7.83101Z" fill="black" fill-opacity="0.05"/>
<path d="M310.363 -7.83101L309.245 -8.94877L308.128 -7.83101L309.245 -6.71325L310.363 -7.83101Z" fill="black" fill-opacity="0.05"/>
<path d="M324.414 -7.83101L323.296 -8.94877L322.179 -7.83101L323.296 -6.71325L324.414 -7.83101Z" fill="black" fill-opacity="0.05"/>
<path d="M338.465 -7.83101L337.348 -8.94877L336.23 -7.83101L337.348 -6.71325L338.465 -7.83101Z" fill="black" fill-opacity="0.05"/>
<path d="M352.517 -7.83101L351.399 -8.94877L350.281 -7.83101L351.399 -6.71325L352.517 -7.83101Z" fill="black" fill-opacity="0.05"/>
<path d="M366.568 -7.83101L365.45 -8.94877L364.332 -7.83101L365.45 -6.71325L366.568 -7.83101Z" fill="black" fill-opacity="0.05"/>
<path d="M380.619 -7.83101L379.501 -8.94877L378.383 -7.83101L379.501 -6.71325L380.619 -7.83101Z" fill="black" fill-opacity="0.05"/>
<path d="M394.67 -7.83101L393.552 -8.94877L392.435 -7.83101L393.552 -6.71325L394.67 -7.83101Z" fill="black" fill-opacity="0.05"/>
<path d="M141.749 6.22023L140.631 5.10246L139.514 6.22023L140.631 7.33799L141.749 6.22023Z" fill="black" fill-opacity="0.05"/>
<path d="M155.8 6.22023L154.683 5.10246L153.565 6.22023L154.683 7.33799L155.8 6.22023Z" fill="black" fill-opacity="0.05"/>
<path d="M169.851 6.22023L168.734 5.10246L167.616 6.22023L168.734 7.33799L169.851 6.22023Z" fill="black" fill-opacity="0.05"/>
<path d="M183.903 6.22023L182.785 5.10246L181.667 6.22023L182.785 7.33799L183.903 6.22023Z" fill="black" fill-opacity="0.05"/>
<path d="M197.954 6.22023L196.836 5.10246L195.718 6.22023L196.836 7.33799L197.954 6.22023Z" fill="black" fill-opacity="0.05"/>
<path d="M212.005 6.22023L210.887 5.10246L209.769 6.22023L210.887 7.33799L212.005 6.22023Z" fill="black" fill-opacity="0.05"/>
<path d="M226.056 6.22023L224.938 5.10246L223.821 6.22023L224.938 7.33799L226.056 6.22023Z" fill="black" fill-opacity="0.05"/>
<path d="M240.107 6.22023L238.989 5.10246L237.872 6.22023L238.989 7.33799L240.107 6.22023Z" fill="black" fill-opacity="0.05"/>
<path d="M254.158 6.22023L253.041 5.10246L251.923 6.22023L253.041 7.33799L254.158 6.22023Z" fill="black" fill-opacity="0.05"/>
<path d="M268.21 6.22023L267.092 5.10246L265.974 6.22023L267.092 7.33799L268.21 6.22023Z" fill="black" fill-opacity="0.05"/>
<path d="M282.261 6.22023L281.143 5.10246L280.025 6.22023L281.143 7.33799L282.261 6.22023Z" fill="black" fill-opacity="0.05"/>
<path d="M296.312 6.22023L295.194 5.10246L294.076 6.22023L295.194 7.33799L296.312 6.22023Z" fill="black" fill-opacity="0.05"/>
<path d="M310.363 6.22023L309.245 5.10246L308.128 6.22023L309.245 7.33799L310.363 6.22023Z" fill="black" fill-opacity="0.05"/>
<path d="M324.414 6.22023L323.296 5.10246L322.179 6.22023L323.296 7.33799L324.414 6.22023Z" fill="black" fill-opacity="0.05"/>
<path d="M338.465 6.22023L337.348 5.10246L336.23 6.22023L337.348 7.33799L338.465 6.22023Z" fill="black" fill-opacity="0.05"/>
<path d="M352.517 6.22023L351.399 5.10246L350.281 6.22023L351.399 7.33799L352.517 6.22023Z" fill="black" fill-opacity="0.05"/>
<path d="M366.568 6.22023L365.45 5.10246L364.332 6.22023L365.45 7.33799L366.568 6.22023Z" fill="black" fill-opacity="0.05"/>
<path d="M380.619 6.22023L379.501 5.10246L378.383 6.22023L379.501 7.33799L380.619 6.22023Z" fill="black" fill-opacity="0.05"/>
<path d="M394.67 6.22023L393.552 5.10246L392.435 6.22023L393.552 7.33799L394.67 6.22023Z" fill="black" fill-opacity="0.05"/>
<path d="M141.749 20.2715L140.631 19.1537L139.514 20.2715L140.631 21.3892L141.749 20.2715Z" fill="black" fill-opacity="0.05"/>
<path d="M155.8 20.2715L154.683 19.1537L153.565 20.2715L154.683 21.3892L155.8 20.2715Z" fill="black" fill-opacity="0.05"/>
<path d="M169.851 20.2715L168.734 19.1537L167.616 20.2715L168.734 21.3892L169.851 20.2715Z" fill="black" fill-opacity="0.05"/>
<path d="M183.903 20.2715L182.785 19.1537L181.667 20.2715L182.785 21.3892L183.903 20.2715Z" fill="black" fill-opacity="0.05"/>
<path d="M197.954 20.2715L196.836 19.1537L195.718 20.2715L196.836 21.3892L197.954 20.2715Z" fill="black" fill-opacity="0.05"/>
<path d="M212.005 20.2715L210.887 19.1537L209.769 20.2715L210.887 21.3892L212.005 20.2715Z" fill="black" fill-opacity="0.05"/>
<path d="M226.056 20.2715L224.938 19.1537L223.821 20.2715L224.938 21.3892L226.056 20.2715Z" fill="black" fill-opacity="0.05"/>
<path d="M240.107 20.2715L238.989 19.1537L237.872 20.2715L238.989 21.3892L240.107 20.2715Z" fill="black" fill-opacity="0.05"/>
<path d="M254.158 20.2715L253.041 19.1537L251.923 20.2715L253.041 21.3892L254.158 20.2715Z" fill="black" fill-opacity="0.05"/>
<path d="M268.21 20.2715L267.092 19.1537L265.974 20.2715L267.092 21.3892L268.21 20.2715Z" fill="black" fill-opacity="0.05"/>
<path d="M282.261 20.2715L281.143 19.1537L280.025 20.2715L281.143 21.3892L282.261 20.2715Z" fill="black" fill-opacity="0.05"/>
<path d="M296.312 20.2715L295.194 19.1537L294.076 20.2715L295.194 21.3892L296.312 20.2715Z" fill="black" fill-opacity="0.05"/>
<path d="M310.363 20.2715L309.245 19.1537L308.128 20.2715L309.245 21.3892L310.363 20.2715Z" fill="black" fill-opacity="0.05"/>
<path d="M324.414 20.2715L323.296 19.1537L322.179 20.2715L323.296 21.3892L324.414 20.2715Z" fill="black" fill-opacity="0.05"/>
<path d="M338.465 20.2715L337.348 19.1537L336.23 20.2715L337.348 21.3892L338.465 20.2715Z" fill="black" fill-opacity="0.05"/>
<path d="M352.517 20.2715L351.399 19.1537L350.281 20.2715L351.399 21.3892L352.517 20.2715Z" fill="black" fill-opacity="0.05"/>
<path d="M366.568 20.2715L365.45 19.1537L364.332 20.2715L365.45 21.3892L366.568 20.2715Z" fill="black" fill-opacity="0.05"/>
<path d="M380.619 20.2715L379.501 19.1537L378.383 20.2715L379.501 21.3892L380.619 20.2715Z" fill="black" fill-opacity="0.05"/>
<path d="M394.67 20.2715L393.552 19.1537L392.435 20.2715L393.552 21.3892L394.67 20.2715Z" fill="black" fill-opacity="0.05"/>
<path d="M141.749 34.3225L140.631 33.2048L139.514 34.3225L140.631 35.4403L141.749 34.3225Z" fill="black" fill-opacity="0.05"/>
<path d="M155.8 34.3225L154.683 33.2048L153.565 34.3225L154.683 35.4403L155.8 34.3225Z" fill="black" fill-opacity="0.05"/>
<path d="M169.851 34.3225L168.734 33.2048L167.616 34.3225L168.734 35.4403L169.851 34.3225Z" fill="black" fill-opacity="0.05"/>
<path d="M183.903 34.3225L182.785 33.2048L181.667 34.3225L182.785 35.4403L183.903 34.3225Z" fill="black" fill-opacity="0.05"/>
<path d="M197.954 34.3225L196.836 33.2048L195.718 34.3225L196.836 35.4403L197.954 34.3225Z" fill="black" fill-opacity="0.05"/>
<path d="M212.005 34.3225L210.887 33.2048L209.769 34.3225L210.887 35.4403L212.005 34.3225Z" fill="black" fill-opacity="0.05"/>
<path d="M226.056 34.3225L224.938 33.2048L223.821 34.3225L224.938 35.4403L226.056 34.3225Z" fill="black" fill-opacity="0.05"/>
<path d="M240.107 34.3225L238.989 33.2048L237.872 34.3225L238.989 35.4403L240.107 34.3225Z" fill="black" fill-opacity="0.05"/>
<path d="M254.158 34.3225L253.041 33.2048L251.923 34.3225L253.041 35.4403L254.158 34.3225Z" fill="black" fill-opacity="0.05"/>
<path d="M268.21 34.3225L267.092 33.2048L265.974 34.3225L267.092 35.4403L268.21 34.3225Z" fill="black" fill-opacity="0.05"/>
<path d="M282.261 34.3225L281.143 33.2048L280.025 34.3225L281.143 35.4403L282.261 34.3225Z" fill="black" fill-opacity="0.05"/>
<path d="M296.312 34.3225L295.194 33.2048L294.076 34.3225L295.194 35.4403L296.312 34.3225Z" fill="black" fill-opacity="0.05"/>
<path d="M310.363 34.3225L309.245 33.2048L308.128 34.3225L309.245 35.4403L310.363 34.3225Z" fill="black" fill-opacity="0.05"/>
<path d="M324.414 34.3225L323.296 33.2048L322.179 34.3225L323.296 35.4403L324.414 34.3225Z" fill="black" fill-opacity="0.05"/>
<path d="M338.465 34.3225L337.348 33.2048L336.23 34.3225L337.348 35.4403L338.465 34.3225Z" fill="black" fill-opacity="0.05"/>
<path d="M352.517 34.3225L351.399 33.2048L350.281 34.3225L351.399 35.4403L352.517 34.3225Z" fill="black" fill-opacity="0.05"/>
<path d="M366.568 34.3225L365.45 33.2048L364.332 34.3225L365.45 35.4403L366.568 34.3225Z" fill="black" fill-opacity="0.05"/>
<path d="M380.619 34.3225L379.501 33.2048L378.383 34.3225L379.501 35.4403L380.619 34.3225Z" fill="black" fill-opacity="0.05"/>
<path d="M394.67 34.3225L393.552 33.2048L392.435 34.3225L393.552 35.4403L394.67 34.3225Z" fill="black" fill-opacity="0.05"/>
<path d="M141.749 48.3737L140.631 47.256L139.514 48.3737L140.631 49.4915L141.749 48.3737Z" fill="black" fill-opacity="0.05"/>
<path d="M155.8 48.3737L154.683 47.256L153.565 48.3737L154.683 49.4915L155.8 48.3737Z" fill="black" fill-opacity="0.05"/>
<path d="M169.851 48.3737L168.734 47.256L167.616 48.3737L168.734 49.4915L169.851 48.3737Z" fill="black" fill-opacity="0.05"/>
<path d="M183.903 48.3737L182.785 47.256L181.667 48.3737L182.785 49.4915L183.903 48.3737Z" fill="black" fill-opacity="0.05"/>
<path d="M197.954 48.3737L196.836 47.256L195.718 48.3737L196.836 49.4915L197.954 48.3737Z" fill="black" fill-opacity="0.05"/>
<path d="M212.005 48.3737L210.887 47.256L209.769 48.3737L210.887 49.4915L212.005 48.3737Z" fill="black" fill-opacity="0.05"/>
<path d="M226.056 48.3737L224.938 47.256L223.821 48.3737L224.938 49.4915L226.056 48.3737Z" fill="black" fill-opacity="0.05"/>
<path d="M240.107 48.3737L238.989 47.256L237.872 48.3737L238.989 49.4915L240.107 48.3737Z" fill="black" fill-opacity="0.05"/>
<path d="M254.158 48.3737L253.041 47.256L251.923 48.3737L253.041 49.4915L254.158 48.3737Z" fill="black" fill-opacity="0.05"/>
<path d="M268.21 48.3737L267.092 47.256L265.974 48.3737L267.092 49.4915L268.21 48.3737Z" fill="black" fill-opacity="0.05"/>
<path d="M282.261 48.3737L281.143 47.256L280.025 48.3737L281.143 49.4915L282.261 48.3737Z" fill="black" fill-opacity="0.05"/>
<path d="M296.312 48.3737L295.194 47.256L294.076 48.3737L295.194 49.4915L296.312 48.3737Z" fill="black" fill-opacity="0.05"/>
<path d="M310.363 48.3737L309.245 47.256L308.128 48.3737L309.245 49.4915L310.363 48.3737Z" fill="black" fill-opacity="0.05"/>
<path d="M324.414 48.3737L323.296 47.256L322.179 48.3737L323.296 49.4915L324.414 48.3737Z" fill="black" fill-opacity="0.05"/>
<path d="M338.465 48.3737L337.348 47.256L336.23 48.3737L337.348 49.4915L338.465 48.3737Z" fill="black" fill-opacity="0.05"/>
<path d="M352.517 48.3737L351.399 47.256L350.281 48.3737L351.399 49.4915L352.517 48.3737Z" fill="black" fill-opacity="0.05"/>
<path d="M366.568 48.3737L365.45 47.256L364.332 48.3737L365.45 49.4915L366.568 48.3737Z" fill="black" fill-opacity="0.05"/>
<path d="M380.619 48.3737L379.501 47.256L378.383 48.3737L379.501 49.4915L380.619 48.3737Z" fill="black" fill-opacity="0.05"/>
<path d="M394.67 48.3737L393.552 47.256L392.435 48.3737L393.552 49.4915L394.67 48.3737Z" fill="black" fill-opacity="0.05"/>
<path d="M141.749 62.425L140.631 61.3072L139.514 62.425L140.631 63.5427L141.749 62.425Z" fill="black" fill-opacity="0.05"/>
<path d="M155.8 62.425L154.683 61.3072L153.565 62.425L154.683 63.5427L155.8 62.425Z" fill="black" fill-opacity="0.05"/>
<path d="M169.851 62.425L168.734 61.3072L167.616 62.425L168.734 63.5427L169.851 62.425Z" fill="black" fill-opacity="0.05"/>
<path d="M183.903 62.425L182.785 61.3072L181.667 62.425L182.785 63.5427L183.903 62.425Z" fill="black" fill-opacity="0.05"/>
<path d="M197.954 62.425L196.836 61.3072L195.718 62.425L196.836 63.5427L197.954 62.425Z" fill="black" fill-opacity="0.05"/>
<path d="M212.005 62.425L210.887 61.3072L209.769 62.425L210.887 63.5427L212.005 62.425Z" fill="black" fill-opacity="0.05"/>
<path d="M226.056 62.425L224.938 61.3072L223.821 62.425L224.938 63.5427L226.056 62.425Z" fill="black" fill-opacity="0.05"/>
<path d="M240.107 62.425L238.989 61.3072L237.872 62.425L238.989 63.5427L240.107 62.425Z" fill="black" fill-opacity="0.05"/>
<path d="M254.158 62.425L253.041 61.3072L251.923 62.425L253.041 63.5427L254.158 62.425Z" fill="black" fill-opacity="0.05"/>
<path d="M268.21 62.425L267.092 61.3072L265.974 62.425L267.092 63.5427L268.21 62.425Z" fill="black" fill-opacity="0.05"/>
<path d="M282.261 62.425L281.143 61.3072L280.025 62.425L281.143 63.5427L282.261 62.425Z" fill="black" fill-opacity="0.05"/>
<path d="M296.312 62.425L295.194 61.3072L294.076 62.425L295.194 63.5427L296.312 62.425Z" fill="black" fill-opacity="0.05"/>
<path d="M310.363 62.425L309.245 61.3072L308.128 62.425L309.245 63.5427L310.363 62.425Z" fill="black" fill-opacity="0.05"/>
<path d="M324.414 62.425L323.296 61.3072L322.179 62.425L323.296 63.5427L324.414 62.425Z" fill="black" fill-opacity="0.05"/>
<path d="M338.465 62.425L337.348 61.3072L336.23 62.425L337.348 63.5427L338.465 62.425Z" fill="black" fill-opacity="0.05"/>
<path d="M352.517 62.425L351.399 61.3072L350.281 62.425L351.399 63.5427L352.517 62.425Z" fill="black" fill-opacity="0.05"/>
<path d="M366.568 62.425L365.45 61.3072L364.332 62.425L365.45 63.5427L366.568 62.425Z" fill="black" fill-opacity="0.05"/>
<path d="M380.619 62.425L379.501 61.3072L378.383 62.425L379.501 63.5427L380.619 62.425Z" fill="black" fill-opacity="0.05"/>
<path d="M394.67 62.425L393.552 61.3072L392.435 62.425L393.552 63.5427L394.67 62.425Z" fill="black" fill-opacity="0.05"/>
<path d="M141.749 76.4759L140.631 75.3581L139.514 76.4759L140.631 77.5937L141.749 76.4759Z" fill="black" fill-opacity="0.05"/>
<path d="M155.8 76.4759L154.683 75.3581L153.565 76.4759L154.683 77.5937L155.8 76.4759Z" fill="black" fill-opacity="0.05"/>
<path d="M169.851 76.4759L168.734 75.3581L167.616 76.4759L168.734 77.5937L169.851 76.4759Z" fill="black" fill-opacity="0.05"/>
<path d="M183.903 76.4759L182.785 75.3581L181.667 76.4759L182.785 77.5937L183.903 76.4759Z" fill="black" fill-opacity="0.05"/>
<path d="M197.954 76.4759L196.836 75.3581L195.718 76.4759L196.836 77.5937L197.954 76.4759Z" fill="black" fill-opacity="0.05"/>
<path d="M212.005 76.4759L210.887 75.3581L209.769 76.4759L210.887 77.5937L212.005 76.4759Z" fill="black" fill-opacity="0.05"/>
<path d="M226.056 76.4759L224.938 75.3581L223.821 76.4759L224.938 77.5937L226.056 76.4759Z" fill="black" fill-opacity="0.05"/>
<path d="M240.107 76.4759L238.989 75.3581L237.872 76.4759L238.989 77.5937L240.107 76.4759Z" fill="black" fill-opacity="0.05"/>
<path d="M254.158 76.4759L253.041 75.3581L251.923 76.4759L253.041 77.5937L254.158 76.4759Z" fill="black" fill-opacity="0.05"/>
<path d="M268.21 76.4759L267.092 75.3581L265.974 76.4759L267.092 77.5937L268.21 76.4759Z" fill="black" fill-opacity="0.05"/>
<path d="M282.261 76.4759L281.143 75.3581L280.025 76.4759L281.143 77.5937L282.261 76.4759Z" fill="black" fill-opacity="0.05"/>
<path d="M296.312 76.4759L295.194 75.3581L294.076 76.4759L295.194 77.5937L296.312 76.4759Z" fill="black" fill-opacity="0.05"/>
<path d="M310.363 76.4759L309.245 75.3581L308.128 76.4759L309.245 77.5937L310.363 76.4759Z" fill="black" fill-opacity="0.05"/>
<path d="M324.414 76.4759L323.296 75.3581L322.179 76.4759L323.296 77.5937L324.414 76.4759Z" fill="black" fill-opacity="0.05"/>
<path d="M338.465 76.4759L337.348 75.3581L336.23 76.4759L337.348 77.5937L338.465 76.4759Z" fill="black" fill-opacity="0.05"/>
<path d="M352.517 76.4759L351.399 75.3581L350.281 76.4759L351.399 77.5937L352.517 76.4759Z" fill="black" fill-opacity="0.05"/>
<path d="M366.568 76.4759L365.45 75.3581L364.332 76.4759L365.45 77.5937L366.568 76.4759Z" fill="black" fill-opacity="0.05"/>
<path d="M380.619 76.4759L379.501 75.3581L378.383 76.4759L379.501 77.5937L380.619 76.4759Z" fill="black" fill-opacity="0.05"/>
<path d="M394.67 76.4759L393.552 75.3581L392.435 76.4759L393.552 77.5937L394.67 76.4759Z" fill="black" fill-opacity="0.05"/>
<path d="M141.749 90.5273L140.631 89.4095L139.514 90.5273L140.631 91.645L141.749 90.5273Z" fill="black" fill-opacity="0.05"/>
<path d="M155.8 90.5273L154.683 89.4095L153.565 90.5273L154.683 91.645L155.8 90.5273Z" fill="black" fill-opacity="0.05"/>
<path d="M169.851 90.5273L168.734 89.4095L167.616 90.5273L168.734 91.645L169.851 90.5273Z" fill="black" fill-opacity="0.05"/>
<path d="M183.903 90.5273L182.785 89.4095L181.667 90.5273L182.785 91.645L183.903 90.5273Z" fill="black" fill-opacity="0.05"/>
<path d="M197.954 90.5273L196.836 89.4095L195.718 90.5273L196.836 91.645L197.954 90.5273Z" fill="black" fill-opacity="0.05"/>
<path d="M212.005 90.5273L210.887 89.4095L209.769 90.5273L210.887 91.645L212.005 90.5273Z" fill="black" fill-opacity="0.05"/>
<path d="M226.056 90.5273L224.938 89.4095L223.821 90.5273L224.938 91.645L226.056 90.5273Z" fill="black" fill-opacity="0.05"/>
<path d="M240.107 90.5273L238.989 89.4095L237.872 90.5273L238.989 91.645L240.107 90.5273Z" fill="black" fill-opacity="0.05"/>
<path d="M254.158 90.5273L253.041 89.4095L251.923 90.5273L253.041 91.645L254.158 90.5273Z" fill="black" fill-opacity="0.05"/>
<path d="M268.21 90.5273L267.092 89.4095L265.974 90.5273L267.092 91.645L268.21 90.5273Z" fill="black" fill-opacity="0.05"/>
<path d="M282.261 90.5273L281.143 89.4095L280.025 90.5273L281.143 91.645L282.261 90.5273Z" fill="black" fill-opacity="0.05"/>
<path d="M296.312 90.5273L295.194 89.4095L294.076 90.5273L295.194 91.645L296.312 90.5273Z" fill="black" fill-opacity="0.05"/>
<path d="M310.363 90.5273L309.245 89.4095L308.128 90.5273L309.245 91.645L310.363 90.5273Z" fill="black" fill-opacity="0.05"/>
<path d="M324.414 90.5273L323.296 89.4095L322.179 90.5273L323.296 91.645L324.414 90.5273Z" fill="black" fill-opacity="0.05"/>
<path d="M338.465 90.5273L337.348 89.4095L336.23 90.5273L337.348 91.645L338.465 90.5273Z" fill="black" fill-opacity="0.05"/>
<path d="M352.517 90.5273L351.399 89.4095L350.281 90.5273L351.399 91.645L352.517 90.5273Z" fill="black" fill-opacity="0.05"/>
<path d="M366.568 90.5273L365.45 89.4095L364.332 90.5273L365.45 91.645L366.568 90.5273Z" fill="black" fill-opacity="0.05"/>
<path d="M380.619 90.5273L379.501 89.4095L378.383 90.5273L379.501 91.645L380.619 90.5273Z" fill="black" fill-opacity="0.05"/>
<path d="M394.67 90.5273L393.552 89.4095L392.435 90.5273L393.552 91.645L394.67 90.5273Z" fill="black" fill-opacity="0.05"/>
<path d="M141.749 104.579L140.631 103.461L139.514 104.579L140.631 105.696L141.749 104.579Z" fill="black" fill-opacity="0.05"/>
<path d="M155.8 104.579L154.683 103.461L153.565 104.579L154.683 105.696L155.8 104.579Z" fill="black" fill-opacity="0.05"/>
<path d="M169.851 104.579L168.734 103.461L167.616 104.579L168.734 105.696L169.851 104.579Z" fill="black" fill-opacity="0.05"/>
<path d="M183.903 104.579L182.785 103.461L181.667 104.579L182.785 105.696L183.903 104.579Z" fill="black" fill-opacity="0.05"/>
<path d="M197.954 104.579L196.836 103.461L195.718 104.579L196.836 105.696L197.954 104.579Z" fill="black" fill-opacity="0.05"/>
<path d="M212.005 104.579L210.887 103.461L209.769 104.579L210.887 105.696L212.005 104.579Z" fill="black" fill-opacity="0.05"/>
<path d="M226.056 104.579L224.938 103.461L223.821 104.579L224.938 105.696L226.056 104.579Z" fill="black" fill-opacity="0.05"/>
<path d="M240.107 104.579L238.989 103.461L237.872 104.579L238.989 105.696L240.107 104.579Z" fill="black" fill-opacity="0.05"/>
<path d="M254.158 104.579L253.041 103.461L251.923 104.579L253.041 105.696L254.158 104.579Z" fill="black" fill-opacity="0.05"/>
<path d="M268.21 104.579L267.092 103.461L265.974 104.579L267.092 105.696L268.21 104.579Z" fill="black" fill-opacity="0.05"/>
<path d="M282.261 104.579L281.143 103.461L280.025 104.579L281.143 105.696L282.261 104.579Z" fill="black" fill-opacity="0.05"/>
<path d="M296.312 104.579L295.194 103.461L294.076 104.579L295.194 105.696L296.312 104.579Z" fill="black" fill-opacity="0.05"/>
<path d="M310.363 104.579L309.245 103.461L308.128 104.579L309.245 105.696L310.363 104.579Z" fill="black" fill-opacity="0.05"/>
<path d="M324.414 104.579L323.296 103.461L322.179 104.579L323.296 105.696L324.414 104.579Z" fill="black" fill-opacity="0.05"/>
<path d="M338.465 104.579L337.348 103.461L336.23 104.579L337.348 105.696L338.465 104.579Z" fill="black" fill-opacity="0.05"/>
<path d="M352.517 104.579L351.399 103.461L350.281 104.579L351.399 105.696L352.517 104.579Z" fill="black" fill-opacity="0.05"/>
<path d="M366.568 104.579L365.45 103.461L364.332 104.579L365.45 105.696L366.568 104.579Z" fill="black" fill-opacity="0.05"/>
<path d="M380.619 104.579L379.501 103.461L378.383 104.579L379.501 105.696L380.619 104.579Z" fill="black" fill-opacity="0.05"/>
<path d="M394.67 104.579L393.552 103.461L392.435 104.579L393.552 105.696L394.67 104.579Z" fill="black" fill-opacity="0.05"/>
<path d="M141.749 118.63L140.631 117.512L139.514 118.63L140.631 119.747L141.749 118.63Z" fill="black" fill-opacity="0.05"/>
<path d="M155.8 118.63L154.683 117.512L153.565 118.63L154.683 119.747L155.8 118.63Z" fill="black" fill-opacity="0.05"/>
<path d="M169.851 118.63L168.734 117.512L167.616 118.63L168.734 119.747L169.851 118.63Z" fill="black" fill-opacity="0.05"/>
<path d="M183.903 118.63L182.785 117.512L181.667 118.63L182.785 119.747L183.903 118.63Z" fill="black" fill-opacity="0.05"/>
<path d="M197.954 118.63L196.836 117.512L195.718 118.63L196.836 119.747L197.954 118.63Z" fill="black" fill-opacity="0.05"/>
<path d="M212.005 118.63L210.887 117.512L209.769 118.63L210.887 119.747L212.005 118.63Z" fill="black" fill-opacity="0.05"/>
<path d="M226.056 118.63L224.938 117.512L223.821 118.63L224.938 119.747L226.056 118.63Z" fill="black" fill-opacity="0.05"/>
<path d="M240.107 118.63L238.989 117.512L237.872 118.63L238.989 119.747L240.107 118.63Z" fill="black" fill-opacity="0.05"/>
<path d="M254.158 118.63L253.041 117.512L251.923 118.63L253.041 119.747L254.158 118.63Z" fill="black" fill-opacity="0.05"/>
<path d="M268.21 118.63L267.092 117.512L265.974 118.63L267.092 119.747L268.21 118.63Z" fill="black" fill-opacity="0.05"/>
<path d="M282.261 118.63L281.143 117.512L280.025 118.63L281.143 119.747L282.261 118.63Z" fill="black" fill-opacity="0.05"/>
<path d="M296.312 118.63L295.194 117.512L294.076 118.63L295.194 119.747L296.312 118.63Z" fill="black" fill-opacity="0.05"/>
<path d="M310.363 118.63L309.245 117.512L308.128 118.63L309.245 119.747L310.363 118.63Z" fill="black" fill-opacity="0.05"/>
<path d="M324.414 118.63L323.296 117.512L322.179 118.63L323.296 119.747L324.414 118.63Z" fill="black" fill-opacity="0.05"/>
<path d="M338.465 118.63L337.348 117.512L336.23 118.63L337.348 119.747L338.465 118.63Z" fill="black" fill-opacity="0.05"/>
<path d="M352.517 118.63L351.399 117.512L350.281 118.63L351.399 119.747L352.517 118.63Z" fill="black" fill-opacity="0.05"/>
<path d="M366.568 118.63L365.45 117.512L364.332 118.63L365.45 119.747L366.568 118.63Z" fill="black" fill-opacity="0.05"/>
<path d="M380.619 118.63L379.501 117.512L378.383 118.63L379.501 119.747L380.619 118.63Z" fill="black" fill-opacity="0.05"/>
<path d="M394.67 118.63L393.552 117.512L392.435 118.63L393.552 119.747L394.67 118.63Z" fill="black" fill-opacity="0.05"/>
<path d="M141.749 132.681L140.631 131.563L139.514 132.681L140.631 133.798L141.749 132.681Z" fill="black" fill-opacity="0.05"/>
<path d="M155.8 132.681L154.683 131.563L153.565 132.681L154.683 133.798L155.8 132.681Z" fill="black" fill-opacity="0.05"/>
<path d="M169.851 132.681L168.734 131.563L167.616 132.681L168.734 133.798L169.851 132.681Z" fill="black" fill-opacity="0.05"/>
<path d="M183.903 132.681L182.785 131.563L181.667 132.681L182.785 133.798L183.903 132.681Z" fill="black" fill-opacity="0.05"/>
<path d="M197.954 132.681L196.836 131.563L195.718 132.681L196.836 133.798L197.954 132.681Z" fill="black" fill-opacity="0.05"/>
<path d="M212.005 132.681L210.887 131.563L209.769 132.681L210.887 133.798L212.005 132.681Z" fill="black" fill-opacity="0.05"/>
<path d="M226.056 132.681L224.938 131.563L223.821 132.681L224.938 133.798L226.056 132.681Z" fill="black" fill-opacity="0.05"/>
<path d="M240.107 132.681L238.989 131.563L237.872 132.681L238.989 133.798L240.107 132.681Z" fill="black" fill-opacity="0.05"/>
<path d="M254.158 132.681L253.041 131.563L251.923 132.681L253.041 133.798L254.158 132.681Z" fill="black" fill-opacity="0.05"/>
<path d="M268.21 132.681L267.092 131.563L265.974 132.681L267.092 133.798L268.21 132.681Z" fill="black" fill-opacity="0.05"/>
<path d="M282.261 132.681L281.143 131.563L280.025 132.681L281.143 133.798L282.261 132.681Z" fill="black" fill-opacity="0.05"/>
<path d="M296.312 132.681L295.194 131.563L294.076 132.681L295.194 133.798L296.312 132.681Z" fill="black" fill-opacity="0.05"/>
<path d="M310.363 132.681L309.245 131.563L308.128 132.681L309.245 133.798L310.363 132.681Z" fill="black" fill-opacity="0.05"/>
<path d="M324.414 132.681L323.296 131.563L322.179 132.681L323.296 133.798L324.414 132.681Z" fill="black" fill-opacity="0.05"/>
<path d="M338.465 132.681L337.348 131.563L336.23 132.681L337.348 133.798L338.465 132.681Z" fill="black" fill-opacity="0.05"/>
<path d="M352.517 132.681L351.399 131.563L350.281 132.681L351.399 133.798L352.517 132.681Z" fill="black" fill-opacity="0.05"/>
<path d="M366.568 132.681L365.45 131.563L364.332 132.681L365.45 133.798L366.568 132.681Z" fill="black" fill-opacity="0.05"/>
<path d="M380.619 132.681L379.501 131.563L378.383 132.681L379.501 133.798L380.619 132.681Z" fill="black" fill-opacity="0.05"/>
<path d="M394.67 132.681L393.552 131.563L392.435 132.681L393.552 133.798L394.67 132.681Z" fill="black" fill-opacity="0.05"/>
<path d="M141.749 146.732L140.631 145.614L139.514 146.732L140.631 147.85L141.749 146.732Z" fill="black" fill-opacity="0.05"/>
<path d="M155.8 146.732L154.683 145.614L153.565 146.732L154.683 147.85L155.8 146.732Z" fill="black" fill-opacity="0.05"/>
<path d="M169.851 146.732L168.734 145.614L167.616 146.732L168.734 147.85L169.851 146.732Z" fill="black" fill-opacity="0.05"/>
<path d="M183.903 146.732L182.785 145.614L181.667 146.732L182.785 147.85L183.903 146.732Z" fill="black" fill-opacity="0.05"/>
<path d="M197.954 146.732L196.836 145.614L195.718 146.732L196.836 147.85L197.954 146.732Z" fill="black" fill-opacity="0.05"/>
<path d="M212.005 146.732L210.887 145.614L209.769 146.732L210.887 147.85L212.005 146.732Z" fill="black" fill-opacity="0.05"/>
<path d="M226.056 146.732L224.938 145.614L223.821 146.732L224.938 147.85L226.056 146.732Z" fill="black" fill-opacity="0.05"/>
<path d="M240.107 146.732L238.989 145.614L237.872 146.732L238.989 147.85L240.107 146.732Z" fill="black" fill-opacity="0.05"/>
<path d="M254.158 146.732L253.041 145.614L251.923 146.732L253.041 147.85L254.158 146.732Z" fill="black" fill-opacity="0.05"/>
<path d="M268.21 146.732L267.092 145.614L265.974 146.732L267.092 147.85L268.21 146.732Z" fill="black" fill-opacity="0.05"/>
<path d="M282.261 146.732L281.143 145.614L280.025 146.732L281.143 147.85L282.261 146.732Z" fill="black" fill-opacity="0.05"/>
<path d="M296.312 146.732L295.194 145.614L294.076 146.732L295.194 147.85L296.312 146.732Z" fill="black" fill-opacity="0.05"/>
<path d="M310.363 146.732L309.245 145.614L308.128 146.732L309.245 147.85L310.363 146.732Z" fill="black" fill-opacity="0.05"/>
<path d="M324.414 146.732L323.296 145.614L322.179 146.732L323.296 147.85L324.414 146.732Z" fill="black" fill-opacity="0.05"/>
<path d="M338.465 146.732L337.348 145.614L336.23 146.732L337.348 147.85L338.465 146.732Z" fill="black" fill-opacity="0.05"/>
<path d="M352.517 146.732L351.399 145.614L350.281 146.732L351.399 147.85L352.517 146.732Z" fill="black" fill-opacity="0.05"/>
<path d="M366.568 146.732L365.45 145.614L364.332 146.732L365.45 147.85L366.568 146.732Z" fill="black" fill-opacity="0.05"/>
<path d="M380.619 146.732L379.501 145.614L378.383 146.732L379.501 147.85L380.619 146.732Z" fill="black" fill-opacity="0.05"/>
<path d="M394.67 146.732L393.552 145.614L392.435 146.732L393.552 147.85L394.67 146.732Z" fill="black" fill-opacity="0.05"/>
<path d="M141.749 160.783L140.631 159.665L139.514 160.783L140.631 161.901L141.749 160.783Z" fill="black" fill-opacity="0.05"/>
<path d="M155.8 160.783L154.683 159.665L153.565 160.783L154.683 161.901L155.8 160.783Z" fill="black" fill-opacity="0.05"/>
<path d="M169.851 160.783L168.734 159.665L167.616 160.783L168.734 161.901L169.851 160.783Z" fill="black" fill-opacity="0.05"/>
<path d="M183.903 160.783L182.785 159.665L181.667 160.783L182.785 161.901L183.903 160.783Z" fill="black" fill-opacity="0.05"/>
<path d="M197.954 160.783L196.836 159.665L195.718 160.783L196.836 161.901L197.954 160.783Z" fill="black" fill-opacity="0.05"/>
<path d="M212.005 160.783L210.887 159.665L209.769 160.783L210.887 161.901L212.005 160.783Z" fill="black" fill-opacity="0.05"/>
<path d="M226.056 160.783L224.938 159.665L223.821 160.783L224.938 161.901L226.056 160.783Z" fill="black" fill-opacity="0.05"/>
<path d="M240.107 160.783L238.989 159.665L237.872 160.783L238.989 161.901L240.107 160.783Z" fill="black" fill-opacity="0.05"/>
<path d="M254.158 160.783L253.041 159.665L251.923 160.783L253.041 161.901L254.158 160.783Z" fill="black" fill-opacity="0.05"/>
<path d="M268.21 160.783L267.092 159.665L265.974 160.783L267.092 161.901L268.21 160.783Z" fill="black" fill-opacity="0.05"/>
<path d="M282.261 160.783L281.143 159.665L280.025 160.783L281.143 161.901L282.261 160.783Z" fill="black" fill-opacity="0.05"/>
<path d="M296.312 160.783L295.194 159.665L294.076 160.783L295.194 161.901L296.312 160.783Z" fill="black" fill-opacity="0.05"/>
<path d="M310.363 160.783L309.245 159.665L308.128 160.783L309.245 161.901L310.363 160.783Z" fill="black" fill-opacity="0.05"/>
<path d="M324.414 160.783L323.296 159.665L322.179 160.783L323.296 161.901L324.414 160.783Z" fill="black" fill-opacity="0.05"/>
<path d="M338.465 160.783L337.348 159.665L336.23 160.783L337.348 161.901L338.465 160.783Z" fill="black" fill-opacity="0.05"/>
<path d="M352.517 160.783L351.399 159.665L350.281 160.783L351.399 161.901L352.517 160.783Z" fill="black" fill-opacity="0.05"/>
<path d="M366.568 160.783L365.45 159.665L364.332 160.783L365.45 161.901L366.568 160.783Z" fill="black" fill-opacity="0.05"/>
<path d="M380.619 160.783L379.501 159.665L378.383 160.783L379.501 161.901L380.619 160.783Z" fill="black" fill-opacity="0.05"/>
<path d="M394.67 160.783L393.552 159.665L392.435 160.783L393.552 161.901L394.67 160.783Z" fill="black" fill-opacity="0.05"/>
<path d="M141.749 174.834L140.631 173.716L139.514 174.834L140.631 175.952L141.749 174.834Z" fill="black" fill-opacity="0.05"/>
<path d="M155.8 174.834L154.683 173.716L153.565 174.834L154.683 175.952L155.8 174.834Z" fill="black" fill-opacity="0.05"/>
<path d="M169.851 174.834L168.734 173.716L167.616 174.834L168.734 175.952L169.851 174.834Z" fill="black" fill-opacity="0.05"/>
<path d="M183.903 174.834L182.785 173.716L181.667 174.834L182.785 175.952L183.903 174.834Z" fill="black" fill-opacity="0.05"/>
<path d="M197.954 174.834L196.836 173.716L195.718 174.834L196.836 175.952L197.954 174.834Z" fill="black" fill-opacity="0.05"/>
<path d="M212.005 174.834L210.887 173.716L209.769 174.834L210.887 175.952L212.005 174.834Z" fill="black" fill-opacity="0.05"/>
<path d="M226.056 174.834L224.938 173.716L223.821 174.834L224.938 175.952L226.056 174.834Z" fill="black" fill-opacity="0.05"/>
<path d="M240.107 174.834L238.989 173.716L237.872 174.834L238.989 175.952L240.107 174.834Z" fill="black" fill-opacity="0.05"/>
<path d="M254.158 174.834L253.041 173.716L251.923 174.834L253.041 175.952L254.158 174.834Z" fill="black" fill-opacity="0.05"/>
<path d="M268.21 174.834L267.092 173.716L265.974 174.834L267.092 175.952L268.21 174.834Z" fill="black" fill-opacity="0.05"/>
<path d="M282.261 174.834L281.143 173.716L280.025 174.834L281.143 175.952L282.261 174.834Z" fill="black" fill-opacity="0.05"/>
<path d="M296.312 174.834L295.194 173.716L294.076 174.834L295.194 175.952L296.312 174.834Z" fill="black" fill-opacity="0.05"/>
<path d="M310.363 174.834L309.245 173.716L308.128 174.834L309.245 175.952L310.363 174.834Z" fill="black" fill-opacity="0.05"/>
<path d="M324.414 174.834L323.296 173.716L322.179 174.834L323.296 175.952L324.414 174.834Z" fill="black" fill-opacity="0.05"/>
<path d="M338.465 174.834L337.348 173.716L336.23 174.834L337.348 175.952L338.465 174.834Z" fill="black" fill-opacity="0.05"/>
<path d="M352.517 174.834L351.399 173.716L350.281 174.834L351.399 175.952L352.517 174.834Z" fill="black" fill-opacity="0.05"/>
<path d="M366.568 174.834L365.45 173.716L364.332 174.834L365.45 175.952L366.568 174.834Z" fill="black" fill-opacity="0.05"/>
<path d="M380.619 174.834L379.501 173.716L378.383 174.834L379.501 175.952L380.619 174.834Z" fill="black" fill-opacity="0.05"/>
<path d="M394.67 174.834L393.552 173.716L392.435 174.834L393.552 175.952L394.67 174.834Z" fill="black" fill-opacity="0.05"/>
<path d="M141.749 188.886L140.631 187.768L139.514 188.886L140.631 190.003L141.749 188.886Z" fill="black" fill-opacity="0.05"/>
<path d="M155.8 188.886L154.683 187.768L153.565 188.886L154.683 190.003L155.8 188.886Z" fill="black" fill-opacity="0.05"/>
<path d="M169.851 188.886L168.734 187.768L167.616 188.886L168.734 190.003L169.851 188.886Z" fill="black" fill-opacity="0.05"/>
<path d="M183.903 188.886L182.785 187.768L181.667 188.886L182.785 190.003L183.903 188.886Z" fill="black" fill-opacity="0.05"/>
<path d="M197.954 188.886L196.836 187.768L195.718 188.886L196.836 190.003L197.954 188.886Z" fill="black" fill-opacity="0.05"/>
<path d="M212.005 188.886L210.887 187.768L209.769 188.886L210.887 190.003L212.005 188.886Z" fill="black" fill-opacity="0.05"/>
<path d="M226.056 188.886L224.938 187.768L223.821 188.886L224.938 190.003L226.056 188.886Z" fill="black" fill-opacity="0.05"/>
<path d="M240.107 188.886L238.989 187.768L237.872 188.886L238.989 190.003L240.107 188.886Z" fill="black" fill-opacity="0.05"/>
<path d="M254.158 188.886L253.041 187.768L251.923 188.886L253.041 190.003L254.158 188.886Z" fill="black" fill-opacity="0.05"/>
<path d="M268.21 188.886L267.092 187.768L265.974 188.886L267.092 190.003L268.21 188.886Z" fill="black" fill-opacity="0.05"/>
<path d="M282.261 188.886L281.143 187.768L280.025 188.886L281.143 190.003L282.261 188.886Z" fill="black" fill-opacity="0.05"/>
<path d="M296.312 188.886L295.194 187.768L294.076 188.886L295.194 190.003L296.312 188.886Z" fill="black" fill-opacity="0.05"/>
<path d="M310.363 188.886L309.245 187.768L308.128 188.886L309.245 190.003L310.363 188.886Z" fill="black" fill-opacity="0.05"/>
<path d="M324.414 188.886L323.296 187.768L322.179 188.886L323.296 190.003L324.414 188.886Z" fill="black" fill-opacity="0.05"/>
<path d="M338.465 188.886L337.348 187.768L336.23 188.886L337.348 190.003L338.465 188.886Z" fill="black" fill-opacity="0.05"/>
<path d="M352.517 188.886L351.399 187.768L350.281 188.886L351.399 190.003L352.517 188.886Z" fill="black" fill-opacity="0.05"/>
<path d="M366.568 188.886L365.45 187.768L364.332 188.886L365.45 190.003L366.568 188.886Z" fill="black" fill-opacity="0.05"/>
<path d="M380.619 188.886L379.501 187.768L378.383 188.886L379.501 190.003L380.619 188.886Z" fill="black" fill-opacity="0.05"/>
<path d="M394.67 188.886L393.552 187.768L392.435 188.886L393.552 190.003L394.67 188.886Z" fill="black" fill-opacity="0.05"/>
<path d="M141.749 202.937L140.631 201.819L139.514 202.937L140.631 204.054L141.749 202.937Z" fill="black" fill-opacity="0.05"/>
<path d="M155.8 202.937L154.683 201.819L153.565 202.937L154.683 204.054L155.8 202.937Z" fill="black" fill-opacity="0.05"/>
<path d="M169.851 202.937L168.734 201.819L167.616 202.937L168.734 204.054L169.851 202.937Z" fill="black" fill-opacity="0.05"/>
<path d="M183.903 202.937L182.785 201.819L181.667 202.937L182.785 204.054L183.903 202.937Z" fill="black" fill-opacity="0.05"/>
<path d="M197.954 202.937L196.836 201.819L195.718 202.937L196.836 204.054L197.954 202.937Z" fill="black" fill-opacity="0.05"/>
<path d="M212.005 202.937L210.887 201.819L209.769 202.937L210.887 204.054L212.005 202.937Z" fill="black" fill-opacity="0.05"/>
<path d="M226.056 202.937L224.938 201.819L223.821 202.937L224.938 204.054L226.056 202.937Z" fill="black" fill-opacity="0.05"/>
<path d="M240.107 202.937L238.989 201.819L237.872 202.937L238.989 204.054L240.107 202.937Z" fill="black" fill-opacity="0.05"/>
<path d="M254.158 202.937L253.041 201.819L251.923 202.937L253.041 204.054L254.158 202.937Z" fill="black" fill-opacity="0.05"/>
<path d="M268.21 202.937L267.092 201.819L265.974 202.937L267.092 204.054L268.21 202.937Z" fill="black" fill-opacity="0.05"/>
<path d="M282.261 202.937L281.143 201.819L280.025 202.937L281.143 204.054L282.261 202.937Z" fill="black" fill-opacity="0.05"/>
<path d="M296.312 202.937L295.194 201.819L294.076 202.937L295.194 204.054L296.312 202.937Z" fill="black" fill-opacity="0.05"/>
<path d="M310.363 202.937L309.245 201.819L308.128 202.937L309.245 204.054L310.363 202.937Z" fill="black" fill-opacity="0.05"/>
<path d="M324.414 202.937L323.296 201.819L322.179 202.937L323.296 204.054L324.414 202.937Z" fill="black" fill-opacity="0.05"/>
<path d="M338.465 202.937L337.348 201.819L336.23 202.937L337.348 204.054L338.465 202.937Z" fill="black" fill-opacity="0.05"/>
<path d="M352.517 202.937L351.399 201.819L350.281 202.937L351.399 204.054L352.517 202.937Z" fill="black" fill-opacity="0.05"/>
<path d="M366.568 202.937L365.45 201.819L364.332 202.937L365.45 204.054L366.568 202.937Z" fill="black" fill-opacity="0.05"/>
<path d="M380.619 202.937L379.501 201.819L378.383 202.937L379.501 204.054L380.619 202.937Z" fill="black" fill-opacity="0.05"/>
<path d="M394.67 202.937L393.552 201.819L392.435 202.937L393.552 204.054L394.67 202.937Z" fill="black" fill-opacity="0.05"/>
<path d="M141.749 216.988L140.631 215.87L139.514 216.988L140.631 218.105L141.749 216.988Z" fill="black" fill-opacity="0.05"/>
<path d="M155.8 216.988L154.683 215.87L153.565 216.988L154.683 218.105L155.8 216.988Z" fill="black" fill-opacity="0.05"/>
<path d="M169.851 216.988L168.734 215.87L167.616 216.988L168.734 218.105L169.851 216.988Z" fill="black" fill-opacity="0.05"/>
<path d="M183.903 216.988L182.785 215.87L181.667 216.988L182.785 218.105L183.903 216.988Z" fill="black" fill-opacity="0.05"/>
<path d="M197.954 216.988L196.836 215.87L195.718 216.988L196.836 218.105L197.954 216.988Z" fill="black" fill-opacity="0.05"/>
<path d="M212.005 216.988L210.887 215.87L209.769 216.988L210.887 218.105L212.005 216.988Z" fill="black" fill-opacity="0.05"/>
<path d="M226.056 216.988L224.938 215.87L223.821 216.988L224.938 218.105L226.056 216.988Z" fill="black" fill-opacity="0.05"/>
<path d="M240.107 216.988L238.989 215.87L237.872 216.988L238.989 218.105L240.107 216.988Z" fill="black" fill-opacity="0.05"/>
<path d="M254.158 216.988L253.041 215.87L251.923 216.988L253.041 218.105L254.158 216.988Z" fill="black" fill-opacity="0.05"/>
<path d="M268.21 216.988L267.092 215.87L265.974 216.988L267.092 218.105L268.21 216.988Z" fill="black" fill-opacity="0.05"/>
<path d="M282.261 216.988L281.143 215.87L280.025 216.988L281.143 218.105L282.261 216.988Z" fill="black" fill-opacity="0.05"/>
<path d="M296.312 216.988L295.194 215.87L294.076 216.988L295.194 218.105L296.312 216.988Z" fill="black" fill-opacity="0.05"/>
<path d="M310.363 216.988L309.245 215.87L308.128 216.988L309.245 218.105L310.363 216.988Z" fill="black" fill-opacity="0.05"/>
<path d="M324.414 216.988L323.296 215.87L322.179 216.988L323.296 218.105L324.414 216.988Z" fill="black" fill-opacity="0.05"/>
<path d="M338.465 216.988L337.348 215.87L336.23 216.988L337.348 218.105L338.465 216.988Z" fill="black" fill-opacity="0.05"/>
<path d="M352.517 216.988L351.399 215.87L350.281 216.988L351.399 218.105L352.517 216.988Z" fill="black" fill-opacity="0.05"/>
<path d="M366.568 216.988L365.45 215.87L364.332 216.988L365.45 218.105L366.568 216.988Z" fill="black" fill-opacity="0.05"/>
<path d="M380.619 216.988L379.501 215.87L378.383 216.988L379.501 218.105L380.619 216.988Z" fill="black" fill-opacity="0.05"/>
<path d="M394.67 216.988L393.552 215.87L392.435 216.988L393.552 218.105L394.67 216.988Z" fill="black" fill-opacity="0.05"/>
<path d="M141.749 231.039L140.631 229.921L139.514 231.039L140.631 232.157L141.749 231.039Z" fill="black" fill-opacity="0.05"/>
<path d="M155.8 231.039L154.683 229.921L153.565 231.039L154.683 232.157L155.8 231.039Z" fill="black" fill-opacity="0.05"/>
<path d="M169.851 231.039L168.734 229.921L167.616 231.039L168.734 232.157L169.851 231.039Z" fill="black" fill-opacity="0.05"/>
<path d="M183.903 231.039L182.785 229.921L181.667 231.039L182.785 232.157L183.903 231.039Z" fill="black" fill-opacity="0.05"/>
<path d="M197.954 231.039L196.836 229.921L195.718 231.039L196.836 232.157L197.954 231.039Z" fill="black" fill-opacity="0.05"/>
<path d="M212.005 231.039L210.887 229.921L209.769 231.039L210.887 232.157L212.005 231.039Z" fill="black" fill-opacity="0.05"/>
<path d="M226.056 231.039L224.938 229.921L223.821 231.039L224.938 232.157L226.056 231.039Z" fill="black" fill-opacity="0.05"/>
<path d="M240.107 231.039L238.989 229.921L237.872 231.039L238.989 232.157L240.107 231.039Z" fill="black" fill-opacity="0.05"/>
<path d="M254.158 231.039L253.041 229.921L251.923 231.039L253.041 232.157L254.158 231.039Z" fill="black" fill-opacity="0.05"/>
<path d="M268.21 231.039L267.092 229.921L265.974 231.039L267.092 232.157L268.21 231.039Z" fill="black" fill-opacity="0.05"/>
<path d="M282.261 231.039L281.143 229.921L280.025 231.039L281.143 232.157L282.261 231.039Z" fill="black" fill-opacity="0.05"/>
<path d="M296.312 231.039L295.194 229.921L294.076 231.039L295.194 232.157L296.312 231.039Z" fill="black" fill-opacity="0.05"/>
<path d="M310.363 231.039L309.245 229.921L308.128 231.039L309.245 232.157L310.363 231.039Z" fill="black" fill-opacity="0.05"/>
<path d="M324.414 231.039L323.296 229.921L322.179 231.039L323.296 232.157L324.414 231.039Z" fill="black" fill-opacity="0.05"/>
<path d="M338.465 231.039L337.348 229.921L336.23 231.039L337.348 232.157L338.465 231.039Z" fill="black" fill-opacity="0.05"/>
<path d="M352.517 231.039L351.399 229.921L350.281 231.039L351.399 232.157L352.517 231.039Z" fill="black" fill-opacity="0.05"/>
<path d="M366.568 231.039L365.45 229.921L364.332 231.039L365.45 232.157L366.568 231.039Z" fill="black" fill-opacity="0.05"/>
<path d="M380.619 231.039L379.501 229.921L378.383 231.039L379.501 232.157L380.619 231.039Z" fill="black" fill-opacity="0.05"/>
<path d="M394.67 231.039L393.552 229.921L392.435 231.039L393.552 232.157L394.67 231.039Z" fill="black" fill-opacity="0.05"/>
</svg>
