<svg width="15" height="16" viewBox="0 0 15 16" fill="none" xmlns="http://www.w3.org/2000/svg">
<path fill-rule="evenodd" clip-rule="evenodd" d="M8.6344 0.796797C9.06605 1.55484 8.80361 2.52051 8.04823 2.95367L3.3516 5.64692C3.22727 5.71823 3.15059 5.85059 3.15059 5.99392V10.223C3.15059 10.3664 3.22727 10.4987 3.3516 10.57L7.06768 12.701C7.19092 12.7717 7.34241 12.7717 7.46565 12.701L11.1817 10.57C11.3061 10.4987 11.3827 10.3664 11.3827 10.223V7.593L8.04077 9.48528C7.28305 9.91432 6.32221 9.64569 5.89469 8.88531C5.46717 8.12492 5.73484 7.16069 6.49256 6.73167L11.2745 4.02407C12.7311 3.19931 14.5333 4.25545 14.5333 5.93383V10.5435C14.5333 11.6232 13.9568 12.6201 13.0227 13.1558L8.75416 15.6036C7.83243 16.1321 6.70089 16.1321 5.77917 15.6036L1.51064 13.1558C0.576499 12.6201 0 11.6232 0 10.5435V5.67341C0 4.59372 0.5765 3.5968 1.51064 3.06113L6.48511 0.208557C7.24048 -0.224609 8.20276 0.038754 8.6344 0.796797Z" fill="url(#paint0_linear_8_727)"/>
<defs>
<linearGradient id="paint0_linear_8_727" x1="10.9387" y1="2.41947" x2="3.4416" y2="14.1645" gradientUnits="userSpaceOnUse">
<stop stop-color="#FFB45B"/>
<stop offset="1" stop-color="#FF8A00"/>
</linearGradient>
</defs>
</svg>
