<svg width="24" height="25" viewBox="0 0 24 25" fill="none" xmlns="http://www.w3.org/2000/svg">
  <path
      d="M3.78312 3.326L12.0001 1.5L20.2171 3.326C20.4392 3.37536 20.6378 3.49897 20.7801 3.6764C20.9225 3.85384 21.0001 4.07452 21.0001 4.302V14.289C21 15.2767 20.7561 16.2492 20.29 17.12C19.8239 17.9908 19.15 18.7331 18.3281 19.281L12.0001 23.5L5.67212 19.281C4.8504 18.7332 4.17658 17.9911 3.71047 17.1205C3.24436 16.2498 3.00036 15.2776 3.00012 14.29V4.302C3.00016 4.07452 3.07776 3.85384 3.22011 3.6764C3.36246 3.49897 3.56106 3.37536 3.78312 3.326ZM12.0001 11.5C12.6632 11.5 13.299 11.2366 13.7679 10.7678C14.2367 10.2989 14.5001 9.66304 14.5001 9C14.5001 8.33696 14.2367 7.70107 13.7679 7.23223C13.299 6.76339 12.6632 6.5 12.0001 6.5C11.3371 6.5 10.7012 6.76339 10.2324 7.23223C9.76351 7.70107 9.50012 8.33696 9.50012 9C9.50012 9.66304 9.76351 10.2989 10.2324 10.7678C10.7012 11.2366 11.3371 11.5 12.0001 11.5ZM7.52712 16.5H16.4731C16.3519 15.3984 15.8284 14.3803 15.003 13.6407C14.1776 12.9012 13.1084 12.4922 12.0001 12.4922C10.8919 12.4922 9.8226 12.9012 8.9972 13.6407C8.17181 14.3803 7.64834 15.3984 7.52712 16.5Z"
      fill="currentColor"/>
</svg>
