<svg width="25" height="21" viewBox="0 0 25 21" fill="none" xmlns="http://www.w3.org/2000/svg">
<path d="M14.17 1.49997C14.17 1.94397 13.977 2.34297 13.67 2.61797V4.49997H18.67C19.4657 4.49997 20.2288 4.81604 20.7914 5.37865C21.354 5.94126 21.67 6.70432 21.67 7.49997V17.5C21.67 18.2956 21.354 19.0587 20.7914 19.6213C20.2288 20.1839 19.4657 20.5 18.67 20.5H6.67004C5.87439 20.5 5.11133 20.1839 4.54872 19.6213C3.98611 19.0587 3.67004 18.2956 3.67004 17.5V7.49997C3.67004 6.70432 3.98611 5.94126 4.54872 5.37865C5.11133 4.81604 5.87439 4.49997 6.67004 4.49997H11.67V2.61797C11.4835 2.45117 11.3417 2.24036 11.2575 2.00474C11.1733 1.76912 11.1494 1.51619 11.1879 1.26896C11.2265 1.02173 11.3262 0.788071 11.4781 0.589251C11.63 0.390432 11.8293 0.232772 12.0577 0.130626C12.2861 0.0284804 12.5364 -0.0149052 12.7859 0.00442001C13.0354 0.0237452 13.276 0.105167 13.486 0.241272C13.6959 0.377376 13.8685 0.563839 13.988 0.783682C14.1075 1.00352 14.17 1.24976 14.17 1.49997ZM0.670044 9.49997H2.67004V15.5H0.670044V9.49997ZM24.67 9.49997H22.67V15.5H24.67V9.49997ZM9.67004 14C10.0679 14 10.4494 13.8419 10.7307 13.5606C11.012 13.2793 11.17 12.8978 11.17 12.5C11.17 12.1021 11.012 11.7206 10.7307 11.4393C10.4494 11.158 10.0679 11 9.67004 11C9.27222 11 8.89069 11.158 8.60938 11.4393C8.32808 11.7206 8.17004 12.1021 8.17004 12.5C8.17004 12.8978 8.32808 13.2793 8.60938 13.5606C8.89069 13.8419 9.27222 14 9.67004 14ZM17.17 12.5C17.17 12.1021 17.012 11.7206 16.7307 11.4393C16.4494 11.158 16.0679 11 15.67 11C15.2722 11 14.8907 11.158 14.6094 11.4393C14.3281 11.7206 14.17 12.1021 14.17 12.5C14.17 12.8978 14.3281 13.2793 14.6094 13.5606C14.8907 13.8419 15.2722 14 15.67 14C16.0679 14 16.4494 13.8419 16.7307 13.5606C17.012 13.2793 17.17 12.8978 17.17 12.5Z" fill="#031720" fill-opacity="0.12"/>
<path d="M14.17 1.49997C14.17 1.94397 13.977 2.34297 13.67 2.61797V4.49997H18.67C19.4657 4.49997 20.2288 4.81604 20.7914 5.37865C21.354 5.94126 21.67 6.70432 21.67 7.49997V17.5C21.67 18.2956 21.354 19.0587 20.7914 19.6213C20.2288 20.1839 19.4657 20.5 18.67 20.5H6.67004C5.87439 20.5 5.11133 20.1839 4.54872 19.6213C3.98611 19.0587 3.67004 18.2956 3.67004 17.5V7.49997C3.67004 6.70432 3.98611 5.94126 4.54872 5.37865C5.11133 4.81604 5.87439 4.49997 6.67004 4.49997H11.67V2.61797C11.4835 2.45117 11.3417 2.24036 11.2575 2.00474C11.1733 1.76912 11.1494 1.51619 11.1879 1.26896C11.2265 1.02173 11.3262 0.788071 11.4781 0.589251C11.63 0.390432 11.8293 0.232772 12.0577 0.130626C12.2861 0.0284804 12.5364 -0.0149052 12.7859 0.00442001C13.0354 0.0237452 13.276 0.105167 13.486 0.241272C13.6959 0.377376 13.8685 0.563839 13.988 0.783682C14.1075 1.00352 14.17 1.24976 14.17 1.49997ZM0.670044 9.49997H2.67004V15.5H0.670044V9.49997ZM24.67 9.49997H22.67V15.5H24.67V9.49997ZM9.67004 14C10.0679 14 10.4494 13.8419 10.7307 13.5606C11.012 13.2793 11.17 12.8978 11.17 12.5C11.17 12.1021 11.012 11.7206 10.7307 11.4393C10.4494 11.158 10.0679 11 9.67004 11C9.27222 11 8.89069 11.158 8.60938 11.4393C8.32808 11.7206 8.17004 12.1021 8.17004 12.5C8.17004 12.8978 8.32808 13.2793 8.60938 13.5606C8.89069 13.8419 9.27222 14 9.67004 14ZM17.17 12.5C17.17 12.1021 17.012 11.7206 16.7307 11.4393C16.4494 11.158 16.0679 11 15.67 11C15.2722 11 14.8907 11.158 14.6094 11.4393C14.3281 11.7206 14.17 12.1021 14.17 12.5C14.17 12.8978 14.3281 13.2793 14.6094 13.5606C14.8907 13.8419 15.2722 14 15.67 14C16.0679 14 16.4494 13.8419 16.7307 13.5606C17.012 13.2793 17.17 12.8978 17.17 12.5Z" fill="#00FFC4" fill-opacity="0.24"/>
</svg>
