<svg width="20" height="15" viewBox="0 0 20 15" fill="none" xmlns="http://www.w3.org/2000/svg">
<path d="M16.9204 2.66024C16.65 2.25184 16.2672 1.93944 15.8132 1.75784C14.8276 1.36264 13.98 1.09864 13.2216 0.949837C12.6896 0.845837 12.1628 1.10744 11.9096 1.60024L11.8464 1.72344C11.2848 1.66144 10.6884 1.64064 10.0092 1.65784C9.31277 1.64104 8.71437 1.66144 8.15197 1.72344L8.08917 1.60024C7.83597 1.10744 7.30837 0.846237 6.77757 0.950237C6.01917 1.09864 5.17117 1.36264 4.18597 1.75824C3.73237 1.93984 3.34957 2.25184 3.07877 2.66064C1.19037 5.51304 0.450366 8.58984 0.816766 12.0674C0.829566 12.1894 0.897566 12.2986 1.00117 12.3638C2.45397 13.2798 3.71117 13.907 4.95757 14.3382C5.47877 14.5202 6.05677 14.3166 6.36437 13.8466L6.91277 13.0062C6.47597 12.8414 6.04957 12.6462 5.64077 12.413C5.44917 12.3038 5.38237 12.0594 5.49157 11.8678C5.60077 11.6754 5.84517 11.6078 6.03717 11.7186C7.25357 12.4122 8.62877 12.779 10.014 12.779C11.3992 12.779 12.7744 12.4122 13.9908 11.7186C14.1824 11.6078 14.4268 11.6754 14.5364 11.8678C14.6456 12.0594 14.5788 12.3038 14.3872 12.413C13.9648 12.6542 13.5232 12.855 13.0708 13.0226L13.6352 13.8634C13.8676 14.2094 14.2512 14.4062 14.6464 14.4062C14.7752 14.4062 14.9052 14.385 15.0316 14.3418C16.2816 13.9102 17.5412 13.2822 18.9972 12.3642C19.1008 12.299 19.1688 12.1894 19.1816 12.0678C19.5488 8.58984 18.8088 5.51264 16.9204 2.66024ZM7.44437 9.59344C6.67397 9.59344 6.03997 8.78184 6.03997 7.79544C6.03997 6.80904 6.67397 5.99744 7.44437 5.99744C8.21477 5.99744 8.84877 6.80904 8.84877 7.79544C8.84877 8.78184 8.21477 9.59344 7.44437 9.59344ZM12.6416 9.58304C11.8784 9.58304 11.2504 8.76664 11.2504 7.77424C11.2504 6.78184 11.8784 5.96544 12.6416 5.96544C13.4048 5.96544 14.0328 6.78184 14.0328 7.77424C14.0328 8.76664 13.4048 9.58304 12.6416 9.58304Z" fill="white"/>
</svg>
