<svg width="20" height="19" viewBox="0 0 20 19" fill="none" xmlns="http://www.w3.org/2000/svg">
<path d="M7.11718 18.7342C7.40158 18.6118 7.60078 18.329 7.60078 17.9998V15.8398C7.60078 15.761 7.60718 15.679 7.61718 15.5958C7.61158 15.5974 7.60638 15.5986 7.60078 15.5998C7.60078 15.5998 6.40078 15.5998 6.16078 15.5998C5.56078 15.5998 5.04078 15.3598 4.80078 14.8798C4.52078 14.3598 4.40078 13.4798 3.68078 12.9998C3.56078 12.9198 3.64078 12.7998 3.88078 12.7998C4.12078 12.8398 4.64078 13.1598 4.96078 13.5998C5.32078 14.0398 5.68078 14.3998 6.32078 14.3998C7.31558 14.3998 7.84878 14.3498 8.16958 14.1778C8.54318 13.6222 9.06038 13.1998 9.60078 13.1998V13.1898C7.33358 13.117 5.88518 12.3634 5.21078 11.1998C3.74478 11.2166 2.46838 11.3618 1.73998 11.4826C1.71678 11.3518 1.69678 11.2202 1.67958 11.0878C2.39838 10.9694 3.61678 10.829 5.01758 10.8022C4.97278 10.6918 4.93398 10.5786 4.90118 10.4626C3.49678 10.3914 2.28478 10.447 1.62638 10.5014C1.61838 10.3686 1.60758 10.2362 1.60598 10.1018C2.26558 10.0478 3.44478 9.9938 4.81318 10.0574C4.78158 9.8574 4.76118 9.653 4.76118 9.4402C4.76118 8.7602 5.00118 8.0402 5.44118 7.4402C5.24118 6.7602 4.96118 5.3202 5.52118 4.8002C6.60118 4.8002 7.36118 5.3202 7.72118 5.6402C8.40078 5.3598 9.16078 5.1998 10.0008 5.1998C10.8408 5.1998 11.6008 5.3598 12.2408 5.6398C12.6008 5.3198 13.3608 4.7998 14.4408 4.7998C15.0408 5.3598 14.7208 6.7998 14.5208 7.4398C14.9608 8.0398 15.2008 8.7198 15.1608 9.4398C15.1608 9.6334 15.1428 9.8202 15.1168 10.0034C16.5164 9.9346 17.7276 9.9898 18.3984 10.0442C18.3976 10.179 18.3852 10.3106 18.378 10.4438C17.7096 10.3886 16.468 10.3318 15.0344 10.4082C14.9988 10.5426 14.9556 10.6734 14.9044 10.8002C16.3228 10.8186 17.5704 10.9558 18.3236 11.0758C18.3064 11.2086 18.2864 11.3402 18.2632 11.4706C17.4984 11.3482 16.1948 11.205 14.7116 11.1978C14.0456 12.349 12.6236 13.0998 10.4008 13.1874V13.1998C11.4408 13.1998 12.4008 14.7598 12.4008 15.8398V17.9998C12.4008 18.329 12.6 18.6118 12.8844 18.7342C16.5488 17.5214 19.2008 14.0654 19.2008 9.9998C19.2008 4.927 15.074 0.799805 10.0008 0.799805C4.92758 0.799805 0.800781 4.927 0.800781 9.9998C0.800781 14.0654 3.45278 17.5214 7.11718 18.7342Z" fill="white"/>
</svg>
