<svg width="20" height="20" viewBox="0 0 20 20" fill="none" xmlns="http://www.w3.org/2000/svg">
<path d="M5.99993 15.1998C8.87181 15.1998 11.1999 12.8717 11.1999 9.9998C11.1999 7.12792 8.87181 4.7998 5.99993 4.7998C3.12805 4.7998 0.799927 7.12792 0.799927 9.9998C0.799927 12.8717 3.12805 15.1998 5.99993 15.1998Z" fill="white"/>
<path d="M14.2 5.2002C12.764 5.2002 11.6 7.3494 11.6 10.0002C11.6 10.4974 11.6408 10.9766 11.7168 11.4274C11.818 12.0286 11.9816 12.579 12.1936 13.0534C12.2996 13.2906 12.4176 13.5086 12.546 13.7042C12.8028 14.0954 13.1012 14.3974 13.4268 14.5846C13.6712 14.7246 13.9308 14.8002 14.2 14.8002C14.4692 14.8002 14.7288 14.7246 14.9732 14.5846C15.2988 14.3974 15.5972 14.0954 15.854 13.7042C15.9824 13.5086 16.1004 13.2906 16.2064 13.0534C16.4184 12.5794 16.582 12.0286 16.6832 11.4274C16.7592 10.9766 16.8 10.4974 16.8 10.0002C16.8 7.3494 15.636 5.2002 14.2 5.2002Z" fill="white"/>
<path d="M18.2001 5.60034C18.0965 5.60034 17.9965 5.66954 17.9029 5.79834C17.8401 5.88394 17.7801 5.99594 17.7237 6.13154C17.6953 6.19914 17.6677 6.27274 17.6413 6.35194C17.5881 6.50994 17.5385 6.69034 17.4933 6.88914C17.4029 7.28714 17.3297 7.76154 17.2789 8.28794C17.2537 8.55114 17.2341 8.82754 17.2205 9.11394C17.2069 9.39994 17.2001 9.69674 17.2001 10.0003C17.2001 10.3039 17.2069 10.6007 17.2205 10.8871C17.2337 11.1735 17.2533 11.4499 17.2789 11.7131C17.3297 12.2395 17.4029 12.7135 17.4933 13.1119C17.5385 13.3111 17.5881 13.4911 17.6413 13.6491C17.6677 13.7283 17.6953 13.8019 17.7237 13.8695C17.7805 14.0051 17.8405 14.1171 17.9029 14.2027C17.9965 14.3311 18.0965 14.4003 18.2001 14.4003C18.7525 14.4003 19.2001 12.4303 19.2001 10.0003C19.2001 7.57034 18.7525 5.60034 18.2001 5.60034Z" fill="white"/>
</svg>
