<svg width="18" height="17" viewBox="0 0 18 17" fill="none" xmlns="http://www.w3.org/2000/svg">
<path d="M17.453 0.621076C17.153 0.366676 16.6818 0.330276 16.1946 0.525876H16.1938C15.6814 0.731476 1.6894 6.73308 1.1198 6.97828C1.0162 7.01428 0.1114 7.35188 0.2046 8.10388C0.2878 8.78188 1.015 9.06268 1.1038 9.09508L4.661 10.3131C4.897 11.0987 5.767 13.9971 5.9594 14.6163C6.0794 15.0023 6.275 15.5095 6.6178 15.6139C6.9186 15.7299 7.2178 15.6239 7.4114 15.4719L9.5862 13.4547L13.097 16.1927L13.1806 16.2427C13.419 16.3483 13.6474 16.4011 13.8654 16.4011C14.0338 16.4011 14.1954 16.3695 14.3498 16.3063C14.8758 16.0903 15.0862 15.5891 15.1082 15.5323L17.7306 1.90148C17.8906 1.17348 17.6682 0.803076 17.453 0.621076ZM7.7982 10.8003L6.5982 14.0003L5.3982 10.0003L14.5982 3.20028L7.7982 10.8003Z" fill="white"/>
</svg>
